<svg xmlns="http://www.w3.org/2000/svg" xmlns:xlink="http://www.w3.org/1999/xlink" viewBox="0 0 999.95 799.66"><defs><style>.cls-1{fill:#121924;}.cls-12,.cls-2,.cls-23,.cls-24,.cls-25,.cls-3{fill:#fff;}.cls-11,.cls-3{stroke:#121924;}.cls-15,.cls-21,.cls-23,.cls-24,.cls-25,.cls-26,.cls-27,.cls-3,.cls-32{stroke-linecap:round;}.cls-21,.cls-23,.cls-24,.cls-25,.cls-26,.cls-27,.cls-3,.cls-32{stroke-linejoin:round;}.cls-4{fill:url(#Gradiente_sem_nome_69);}.cls-5{fill:#050004;}.cls-20,.cls-6{fill:#ffd387;}.cls-34,.cls-6{stroke:#020202;}.cls-11,.cls-12,.cls-13,.cls-15,.cls-28,.cls-34,.cls-6{stroke-miterlimit:10;}.cls-7{fill:#f34919;}.cls-8{fill:#000201;}.cls-9{fill:#7c55ff;}.cls-10{fill:#f8f7f5;}.cls-11,.cls-14{fill:#ffc5c4;}.cls-11,.cls-25,.cls-26,.cls-34{stroke-width:0.5px;}.cls-12,.cls-13,.cls-15,.cls-24,.cls-26,.cls-28{stroke:#000;}.cls-12,.cls-13,.cls-15,.cls-21,.cls-23,.cls-24,.cls-27{stroke-width:0.75px;}.cls-13,.cls-15,.cls-21,.cls-26,.cls-27,.cls-32,.cls-34,.cls-35{fill:none;}.cls-16{fill:#fff9f3;}.cls-17{fill:#a10140;}.cls-18{fill:#f8eee2;}.cls-19{fill:#fcfbfc;}.cls-21{stroke:#101010;}.cls-22{fill:#0f110e;}.cls-23,.cls-25,.cls-27{stroke:#0f110e;}.cls-28,.cls-30{fill:#ffb3da;}.cls-29{fill:#faf0e3;}.cls-31{fill:#b7b8fb;}.cls-32{stroke:#0b0a10;stroke-width:0.94px;}.cls-33{fill:#f381d8;}</style><linearGradient id="Gradiente_sem_nome_69" x1="340.34" y1="421.95" x2="691.43" y2="421.95" gradientUnits="userSpaceOnUse"><stop offset="0" stop-color="#fff"/><stop offset="0.94" stop-color="#f9f9f9"/></linearGradient></defs><g id="Layer_2" data-name="Layer 2"><g id="OBJECTS"><line class="cls-1" x1="735.44" y1="699.16" x2="735.44" y2="710.96"/><path class="cls-2" d="M735.16,712.33a.84.84,0,0,1-.72-1.33V699.2a.84.84,0,0,1,.72-1.33,1.5,1.5,0,0,1,1.28,1.33V711A1.5,1.5,0,0,1,735.16,712.33Z"/><line class="cls-1" x1="735.44" y1="729.19" x2="735.44" y2="740.99"/><path class="cls-2" d="M735.16,742.3a.84.84,0,0,1-.72-1.34V729.17a.84.84,0,0,1,.72-1.33,1.5,1.5,0,0,1,1.28,1.33V741A1.5,1.5,0,0,1,735.16,742.3Z"/><line class="cls-1" x1="752.45" y1="720.61" x2="743.45" y2="720.61"/><path class="cls-2" d="M753,721.68h-9.34a1.46,1.46,0,0,1-1.05-1.41c0-.68.47-1.24,1.05-.73H753c.58-.51,1.05.05,1.05.73A1.46,1.46,0,0,1,753,721.68Z"/><line class="cls-1" x1="727.44" y1="720.61" x2="717.44" y2="720.61"/><path class="cls-2" d="M727.64,721.68H718.3a1.46,1.46,0,0,1-1-1.41c0-.68.47-1.24,1-.73h9.34c.58-.51,1.05.05,1.05.73A1.46,1.46,0,0,1,727.64,721.68Z"/><line class="cls-1" x1="723.19" y1="734.81" x2="730.18" y2="726.55"/><path class="cls-2" d="M723.19,736.12a1,1,0,0,1-.79-.38,1.52,1.52,0,0,1,0-1.87l7-8.25a1,1,0,0,1,1.58,0,1.49,1.49,0,0,1,0,1.87l-7,8.25A1,1,0,0,1,723.19,736.12Z"/><line class="cls-1" x1="741.15" y1="713.62" x2="748.14" y2="705.36"/><path class="cls-2" d="M741.15,714.93a1,1,0,0,1-.79-.38,1.49,1.49,0,0,1,0-1.87l7-8.25a1,1,0,0,1,1.58,0,1.52,1.52,0,0,1,0,1.87l-7,8.25A1.06,1.06,0,0,1,741.15,714.93Z"/><line class="cls-1" x1="723.19" y1="705.36" x2="730.18" y2="713.62"/><path class="cls-2" d="M730.18,714.93a1.06,1.06,0,0,1-.79-.38l-7-8.25a1.52,1.52,0,0,1,0-1.87,1,1,0,0,1,1.58,0l7,8.25a1.49,1.49,0,0,1,0,1.87A1,1,0,0,1,730.18,714.93Z"/><line class="cls-1" x1="741.15" y1="726.55" x2="748.14" y2="734.81"/><path class="cls-2" d="M748.14,736.12a1,1,0,0,1-.79-.38l-7-8.25a1.49,1.49,0,0,1,0-1.87,1,1,0,0,1,1.58,0l7,8.25a1.52,1.52,0,0,1,0,1.87A1,1,0,0,1,748.14,736.12Z"/><ellipse class="cls-2" cx="614.41" cy="734.55" rx="2" ry="2.14"/><path class="cls-3" d="M252.81,660.46V695a2.43,2.43,0,0,0,2.21,2.59h10.8A78.38,78.38,0,0,0,271.87,718h0l-11.13,15.76a2.92,2.92,0,0,0,.3,3.65L284.33,760a2,2,0,0,0,3.12-.35L296.38,747h0a54.68,54.68,0,0,0,12.45,5.93h0V771.1a2.42,2.42,0,0,0,2.21,2.59h29.59a2.43,2.43,0,0,0,2.21-2.59V752.21a55.7,55.7,0,0,0,11.42-5.9l9.38,13.36a2,2,0,0,0,3.1.34L390,737.4a2.92,2.92,0,0,0,.29-3.64l-12-17.13h0a79.11,79.11,0,0,0,5.43-19.08h16a2.42,2.42,0,0,0,2.2-2.59v-34.5a2.42,2.42,0,0,0-2.2-2.58H379.72q-1.11-3-2.46-5.92h0l10.47-14.82a2.89,2.89,0,0,0-.29-3.63L364.25,611a2,2,0,0,0-3.11.34l-8.55,12.1a55.48,55.48,0,0,0-9.75-4.8v-15a2.43,2.43,0,0,0-2.21-2.58H311a2.42,2.42,0,0,0-2.21,2.58V618h0a53.68,53.68,0,0,0-9.88,4.36l-7.76-10.95a2,2,0,0,0-3.12-.34l-23.29,22.49a2.89,2.89,0,0,0-.3,3.63l8.87,12.5a75.2,75.2,0,0,0-3.61,8.24H255A2.43,2.43,0,0,0,252.81,660.46Zm34.83,25c0-24.13,16.58-43.7,37-43.7s37,19.57,37,43.7-16.57,43.71-37,43.71S287.64,709.64,287.64,685.5Z"/><path class="cls-3" d="M511.88,107.64v42a2.94,2.94,0,0,0,2.65,3.15h12.91a95.87,95.87,0,0,0,7.24,24.75h0l-13.31,19.09a3.58,3.58,0,0,0,.36,4.43l27.86,27.38a2.38,2.38,0,0,0,3.73-.42L564,212.68h0a65.67,65.67,0,0,0,14.89,7.17h0v22a2.93,2.93,0,0,0,2.65,3.14h35.71a2.93,2.93,0,0,0,2.65-3.14V219a66.87,66.87,0,0,0,13.75-7.16L645,228a2.38,2.38,0,0,0,3.73.42l27.91-27.38a3.57,3.57,0,0,0,.36-4.43l-14.48-20.73h0A96.08,96.08,0,0,0,669,152.78h19.28a2.94,2.94,0,0,0,2.65-3.15v-42a2.92,2.92,0,0,0-2.65-3.12h-24q-1.34-3.66-3-7.14h0l12.6-17.9a3.52,3.52,0,0,0-.35-4.39L645.68,47.94a2.41,2.41,0,0,0-3.74.41L631.66,63a66.46,66.46,0,0,0-11.75-5.8V39a2.92,2.92,0,0,0-2.65-3.12H581.55A2.92,2.92,0,0,0,578.9,39v17.3h0a64.66,64.66,0,0,0-11.82,5.26l-9.29-13.21a2.39,2.39,0,0,0-3.73-.42L526.2,75.09a3.54,3.54,0,0,0-.35,4.4l10.61,15.09a88.47,88.47,0,0,0-4.32,9.94H514.53A2.92,2.92,0,0,0,511.88,107.64Zm41.92,30.57c0-28.94,19.87-52.39,44.38-52.39s44.39,23.45,44.39,52.39-19.87,52.38-44.39,52.38S553.8,167.14,553.8,138.21Z"/><rect class="cls-4" x="340.34" y="145.81" width="351.1" height="552.28" rx="1.62"/><path class="cls-5" d="M689.35,699.16H342.42a3.39,3.39,0,0,1-3.08-3.63V148.37a3.39,3.39,0,0,1,3.08-3.63H689.35a3.39,3.39,0,0,1,3.08,3.63V695.53A3.39,3.39,0,0,1,689.35,699.16Zm-349-551.41V695.1A1.79,1.79,0,0,0,342,697H688.8a1.81,1.81,0,0,0,1.63-1.94V147.73a1.79,1.79,0,0,0-1.61-1.92H342A1.8,1.8,0,0,0,340.34,147.75Z"/><rect class="cls-6" x="354.84" y="236.43" width="321.09" height="379.63"/><path class="cls-5" d="M676.71,617.66H355.07a.81.81,0,0,1-.73-.87v-380a.79.79,0,0,1,.72-.86H676.7a.81.81,0,0,1,.73.87v380A.79.79,0,0,1,676.71,617.66Zm-321.37-1.07H675.43V238H355.34Z"/><path class="cls-7" d="M370.83,659.24c1,1.06,11.55,12.34,11.88,12,4.21-4.17,8.24-8.63,12.27-13,3.65-4,7.28-9.17,6-15.71-.84-4.25-3.83-7.68-7.48-8.43-4.65-1-8.78,1.94-10.58,6.4a.42.42,0,0,1-.81,0c-2-4.56-6.39-7.37-11.21-6a10.15,10.15,0,0,0-6.15,5.76,12.53,12.53,0,0,0-1.1,5.58C363.82,651.49,367.5,655.73,370.83,659.24Z"/><path class="cls-5" d="M382.78,672.13c-.72,0-2.62-1.81-11.9-11.67l-.54-.58h0c-3.49-3.69-7.24-8.12-7.44-14a13.54,13.54,0,0,1,1.19-6,11,11,0,0,1,6.61-6.19c4.67-1.38,9.44,1,11.78,5.83,2.17-4.72,6.57-7.26,11.13-6.31,3.9.8,7.14,4.45,8.06,9.09,1.41,7.08-2.57,12.55-6.2,16.53l-.76.84c-3.73,4.08-7.58,8.31-11.53,12.23A.57.57,0,0,1,382.78,672.13ZM371.31,658.6l.55.58c7.42,7.89,9.94,10.34,10.76,11,3.79-3.79,7.5-7.87,11.09-11.81l.77-.84c3.34-3.66,7-8.66,5.77-14.88-.78-4-3.55-7.1-6.89-7.79-4.09-.85-8,1.55-9.81,5.93a1.19,1.19,0,0,1-1,.81,1.21,1.21,0,0,1-1.07-.78c-1.93-4.48-6.2-6.75-10.39-5.51a9.46,9.46,0,0,0-5.67,5.33,11.58,11.58,0,0,0-1,5.15c.18,5.19,3.54,9.16,7,12.77Z"/><path class="cls-8" d="M461.89,655.41a1.12,1.12,0,0,1-1-.62l-8.65-15.73a1.58,1.58,0,0,1,0-1.39,1.15,1.15,0,0,1,1-.71h31.54a1.18,1.18,0,0,1,1.11,1,1.43,1.43,0,0,1-.53,1.52l-22.9,15.73A1,1,0,0,1,461.89,655.41ZM453.81,638,462,652.92,483.66,638Z"/><path class="cls-8" d="M469.44,671.28h0a1.18,1.18,0,0,1-1-.74l-7.66-17a1.47,1.47,0,0,1,.45-1.82l23.41-15.26a1,1,0,0,1,1.41.25,1.55,1.55,0,0,1,.18,1.63l-15.75,32.26A1.13,1.13,0,0,1,469.44,671.28Zm-7.27-18,7.28,16.13L484.4,638.8Z"/><path class="cls-8" d="M439,668.06H427c-7.9,0-14.33-7.58-14.33-16.9s6.43-16.91,14.33-16.91,14.32,7.59,14.32,16.91v14.12A2.6,2.6,0,0,1,439,668.06Zm-12.51-31.44c-7.09,0-12.86,6.81-12.86,15.18S419.4,667,426.49,667h12a1,1,0,0,0,.9-1.07V651.8C439.36,643.43,433.59,636.62,426.49,636.62Z"/><path class="cls-8" d="M647.86,663.38a1.37,1.37,0,0,1-.93-.39,1.91,1.91,0,0,1-.51-1.38V632.24a1.59,1.59,0,0,1,1.43-1.71H668a1.6,1.6,0,0,1,1.43,1.71v29.29a1.88,1.88,0,0,1-.52,1.38,1.29,1.29,0,0,1-1.94-.11l-9-10.68-9.08,10.76A1.31,1.31,0,0,1,647.86,663.38Zm-.44-30.69v27.79l9-10.18a1.32,1.32,0,0,1,1-.47h0a1.36,1.36,0,0,1,1,.47l9,10.08,0-27.71Z"/><ellipse class="cls-9" cx="377.85" cy="192.99" rx="21.51" ry="24.67"/><path class="cls-5" d="M378.23,218.37c-12.09,0-21.93-11.61-21.93-25.88s9.84-25.89,21.93-25.89,21.93,11.61,21.93,25.89S390.32,218.37,378.23,218.37Zm0-50.05c-11.29,0-20.48,10.84-20.48,24.17s9.19,24.16,20.48,24.16,20.47-10.84,20.47-24.16S389.52,168.32,378.23,168.32Z"/><path class="cls-10" d="M373.2,184.83c0,3.28,2.25,5.94,5,5.94s5-2.66,5-5.94-2.25-5.94-5-5.94S373.2,181.55,373.2,184.83Z"/><path class="cls-5" d="M378.23,191.63c-3.18,0-5.76-3-5.76-6.8s2.58-6.79,5.76-6.79,5.76,3.05,5.76,6.79S381.4,191.63,378.23,191.63Zm0-11.88c-2.38,0-4.31,2.28-4.31,5.08s1.93,5.08,4.31,5.08,4.3-2.27,4.3-5.08S380.6,179.75,378.23,179.75Z"/><path class="cls-10" d="M371.07,191.92h14.58a1.7,1.7,0,0,1,1.7,1.7v8.59a3.65,3.65,0,0,1-3.65,3.65H373a3.65,3.65,0,0,1-3.65-3.65v-8.57A1.73,1.73,0,0,1,371.07,191.92Z" transform="translate(756.69 397.78) rotate(180)"/><path class="cls-5" d="M383.88,206.93H372.76c-2.44,0-4.42-2.27-4.42-5.06V200.7c0-5.43,3.86-9.85,8.59-9.85h2.83c4.74,0,8.59,4.42,8.59,9.85v1.11C388.35,204.64,386.35,206.93,383.88,206.93ZM376.43,193c-3.91,0-7.09,3.72-7.09,8.29v1.19a3.18,3.18,0,0,0,2.91,3.39h11.14a3.24,3.24,0,0,0,3-3.45v-1.13c0-4.57-3.18-8.29-7.09-8.29Z"/><path class="cls-11" d="M301.71,302.58l40.77-40.81,82.79,72.36,96.65-91.81L530.6,416.6c-50,37.48-123.29,55.48-148,37.68-28.53-20.55-70.7-127-70.7-127Z"/><path class="cls-12" d="M361.17,278.13l-49.28,49.1c-6.33-14.49-10.18-24.65-10.18-24.65l40.77-40.81Z"/><line class="cls-13" x1="337.79" y1="265.99" x2="354.53" y2="284.74"/><line class="cls-13" x1="330.16" y1="274.1" x2="345.34" y2="293.9"/><line class="cls-13" x1="321.66" y1="282.61" x2="336.09" y2="303.12"/><line class="cls-13" x1="313.9" y1="290.71" x2="326.92" y2="312.25"/><line class="cls-13" x1="307.79" y1="296.49" x2="319.82" y2="319.33"/><polyline class="cls-11" points="425.27 334.13 521.92 242.32 530.6 416.6"/><path class="cls-12" d="M421.31,585.52l3,22.12c.9,6.69,5,11.81,10.19,12.58,15.49,2.35,49,6.84,78,6.84,28.53,0,61.83-5.13,76.44-10.14,4.85-1.66,8.79-6.27,9.56-12.78l2.07-17.58c1.09-9.26-4.36-17.63-11.51-17.69l-156.07-1.36C425.62,567.45,420,576.09,421.31,585.52Z"/><line class="cls-13" x1="588.89" y1="616.07" x2="587.68" y2="568"/><line class="cls-13" x1="575.51" y1="619.61" x2="574.28" y2="568"/><line class="cls-13" x1="563.77" y1="621.82" x2="561.95" y2="567.78"/><line class="cls-13" x1="547.93" y1="567.78" x2="549.98" y2="623.79"/><line class="cls-13" x1="530.6" y1="567.51" x2="532.25" y2="625.36"/><line class="cls-13" x1="515.31" y1="625.36" x2="514.29" y2="567.37"/><line class="cls-13" x1="499.88" y1="567.26" x2="499.88" y2="626.24"/><line class="cls-13" x1="482.87" y1="567.26" x2="482.87" y2="625.17"/><line class="cls-13" x1="469.87" y1="567.26" x2="470.35" y2="624.09"/><line class="cls-13" x1="455.78" y1="566.66" x2="457.14" y2="622.43"/><line class="cls-13" x1="442.1" y1="566.66" x2="444.33" y2="620.79"/><line class="cls-13" x1="434.47" y1="619.37" x2="430.5" y2="566.66"/><path class="cls-14" d="M429.41,588.8c-5.53-3.23-11.12-7.55-11.06-13.26,1.82-177.26,42.35-318.95,92.08-318.95s90.26,141.69,92.08,319c-1.31,6.72-5.37,10.45-11.06,13.26C554.08,607.27,465.73,610,429.41,588.8Z"/><path class="cls-15" d="M602.51,575.54c-1.31,6.72-5.37,10.45-11.06,13.26-37.37,18.47-125.72,21.19-162,0-5.53-3.23-11.12-7.55-11.06-13.26,1.82-177.26,42.35-318.95,92.08-318.95"/><path class="cls-8" d="M373.24,276.45l14.64,4.27c7.15,2.08,14.47-3.52,16.35-12.51l.71-3.39c1.89-9-2.39-18-9.54-20.06l-14.63-4.26Z"/><path class="cls-8" d="M387.65,281.8,373,277.54a1.16,1.16,0,0,1-.69-1.36l7.53-36a1.12,1.12,0,0,1,.42-.69.85.85,0,0,1,.72-.13l14.64,4.27a14.35,14.35,0,0,1,8.76,8,21.25,21.25,0,0,1,1.47,13.43l-.71,3.39a18.6,18.6,0,0,1-6.6,11.08,13.1,13.1,0,0,1-5.29,2.47A11.37,11.37,0,0,1,387.65,281.8Zm-13.26-6.17,13.72,4a10.41,10.41,0,0,0,9.41-1.95,16.39,16.39,0,0,0,5.8-9.74l.71-3.39a18.73,18.73,0,0,0-1.29-11.8,12.42,12.42,0,0,0-7.56-6.9l-13.72-4Z"/><path class="cls-8" d="M320.75,415.15h0c6.91,2,14.13-4.07,16.12-13.6l19.5-93.17c2-9.52-2-18.88-8.9-20.89h0c-6.91-2-14.13,4.07-16.12,13.6l-19.5,93.16C309.85,403.78,313.84,413.14,320.75,415.15Z"/><path class="cls-8" d="M320.52,416.24h0c-7.41-2.16-11.71-12.15-9.59-22.26l19.5-93.16c2.11-10.11,9.86-16.58,17.27-14.42,3.61,1.05,6.6,4,8.4,8.22a23.65,23.65,0,0,1,1.19,14l-19.5,93.17a21,21,0,0,1-6.59,11.77,12.9,12.9,0,0,1-5.62,2.85A10.58,10.58,0,0,1,320.52,416.24Zm11.74-114.88-19.49,93.16c-1.87,8.91,1.81,17.68,8.2,19.55a9.73,9.73,0,0,0,9.13-2.3A18.65,18.65,0,0,0,336,401.28l19.5-93.16a21.15,21.15,0,0,0-1-12.5c-1.55-3.65-4.1-6.16-7.17-7.05a8.8,8.8,0,0,0-4.26-.16C338.1,289.42,333.72,294.43,332.26,301.36ZM320.73,415.15h0Z"/><path class="cls-16" d="M329.31,298.05l26.77,7.8c5.61,1.64,11.28-2.4,12.66-9l1.48-7c1.38-6.62-2-13.31-7.65-15L335.8,267c-5.61-1.64-11.28,2.4-12.66,9l-1.48,7C320.28,289.72,323.7,296.41,329.31,298.05Z"/><path class="cls-8" d="M355.85,306.94l-26.77-7.81a11.68,11.68,0,0,1-7-6.11,15.42,15.42,0,0,1-1.3-10.18l1.47-7c1.51-7.2,7.7-11.61,13.8-9.84l26.78,7.81c6.1,1.78,9.84,9.09,8.34,16.29l-1.48,7.05a13.44,13.44,0,0,1-5.17,8.29,10.46,10.46,0,0,1-3.93,1.75A9.91,9.91,0,0,1,355.85,306.94Zm-31.79-30.61-1.48,7c-1.25,6,1.86,12.11,7,13.59h0l26.77,7.81a8.23,8.23,0,0,0,7.2-1.29,11.17,11.17,0,0,0,4.31-6.92l1.48-7c1.25-6-1.86-12.11-6.95-13.59l-26.78-7.81a8.13,8.13,0,0,0-3.91-.16C328.06,268.71,325,271.88,324.06,276.33Z"/><path class="cls-17" d="M330.56,282.85l30.77,9c15,4.38,30.43-7.39,34.38-26.29l1.49-7.12c4-18.9-5-37.78-20.05-42.16l-30.77-9Z"/><path class="cls-5" d="M361.1,292.91l-30.76-9a1.14,1.14,0,0,1-.69-1.36L345.46,207a1.16,1.16,0,0,1,.43-.69.85.85,0,0,1,.72-.13l30.77,9c7.52,2.19,13.82,7.93,17.74,16.17a43.23,43.23,0,0,1,3,27.34l-1.49,7.12c-3.07,14.69-12.9,25.22-24.2,27.56A23.35,23.35,0,0,1,361.1,292.91ZM331.71,282l29.85,8.71c14.51,4.23,29.41-7.2,33.23-25.47l1.5-7.13a40.78,40.78,0,0,0-2.82-25.71c-3.66-7.69-9.53-13.05-16.55-15.09l-29.85-8.71Z"/><path class="cls-18" d="M346.38,205.13h0l-15.82,75.58h0c-23.17-6.76-47.77-3.87-70.46,8.27l-36,18.49,39.22-186.88,24,38.5C302.58,182.3,323.21,198.38,346.38,205.13Z"/><path class="cls-8" d="M223.49,308.33a1.22,1.22,0,0,1-.31-1.12l39.23-186.89a1,1,0,0,1,.73-.82.9.9,0,0,1,.95.43l24,38.47c15.23,23.14,35.49,38.92,58.57,45.65a1.13,1.13,0,0,1,.69,1.35L331.48,281a1.12,1.12,0,0,1-.42.69.82.82,0,0,1-.72.13c-23.09-6.73-47.24-3.89-69.86,8.22l-36,18.49a1,1,0,0,1-.22.08A.87.87,0,0,1,223.49,308.33Zm106.38-29L345.24,206c-23.12-7-43.4-22.95-58.71-46.2l-22.77-36.57L225.48,305.55,259.71,288a101.6,101.6,0,0,1,27.37-10.07A89.82,89.82,0,0,1,329.87,279.36Z"/><path class="cls-19" d="M346.38,205.13h0l-15.82,75.58h0c-23.17-6.76-47.77-3.87-70.46,8.27l-36,18.49,39.22-186.88,24,38.5C302.58,182.3,323.21,198.38,346.38,205.13Z"/><path class="cls-5" d="M223.49,308.33a1.22,1.22,0,0,1-.31-1.12l39.23-186.89a1,1,0,0,1,.73-.82.9.9,0,0,1,.95.43l24,38.47c15.23,23.14,35.49,38.92,58.57,45.65a1.13,1.13,0,0,1,.69,1.35L331.48,281a1.12,1.12,0,0,1-.42.69.82.82,0,0,1-.72.13c-23.09-6.73-47.24-3.89-69.86,8.22l-36,18.49a1,1,0,0,1-.22.08A.87.87,0,0,1,223.49,308.33Zm106.38-29L345.24,206c-23.12-7-43.4-22.95-58.71-46.2l-22.77-36.57L225.48,305.55,259.71,288a101.6,101.6,0,0,1,27.37-10.07A89.82,89.82,0,0,1,329.87,279.36Z"/><ellipse class="cls-2" cx="237.07" cy="212.2" rx="98.25" ry="29.75" transform="translate(-18.93 401.13) rotate(-78.26)"/><path class="cls-8" d="M216.2,309.32c-3.52-1-6.53-3.93-8.94-8.66-8.68-17-8.58-56,.23-97,11.71-54.44,33.87-93.36,50.46-88.59,3.52,1,6.52,3.92,8.93,8.65,8.68,17,8.59,56-.22,97-10.55,49-29.57,85.48-45.37,88.75A10.54,10.54,0,0,1,216.2,309.32Zm-6.88-105.1h0c-8.69,40.45-8.87,78.74-.43,95.29,2.14,4.2,4.75,6.77,7.75,7.63a9,9,0,0,0,4.41.13c14.82-3.07,33.56-39.59,43.77-87.1,8.7-40.44,8.88-78.73.44-95.28-2.14-4.21-4.75-6.78-7.76-7.64a9.08,9.08,0,0,0-4.4-.13C238.28,120.19,219.54,156.72,209.32,204.22Z"/><path class="cls-8" d="M238.34,212.25c-8.65,40.59-7,76,3.73,79.09s26.39-27.3,35-67.89,7-76-3.73-79.1S247,171.66,238.34,212.25Z"/><path class="cls-9" d="M276.37,203.63l-20.81-5.93c-8.5-2.42-17.49,5.49-20.08,17.66h0c-2.58,12.18,2.21,24,10.71,26.43L267,247.72Z"/><path class="cls-5" d="M266.78,248.8,246,242.88c-3.81-1.09-7.11-4-9.3-8.3-2.8-5.48-3.57-12.58-2.11-19.49,2.72-12.74,12.24-21,21.22-18.47l20.81,5.92a1,1,0,0,1,.59.51,1.31,1.31,0,0,1,.11.85L267.92,248a1,1,0,0,1-.76.83A.82.82,0,0,1,266.78,248.8Zm-11.44-50c-8-2.28-16.48,5.29-18.94,16.85-1.34,6.33-.65,12.81,1.89,17.78,1.93,3.75,4.81,6.34,8.12,7.28l19.9,5.67,8.91-41.92Z"/><path class="cls-2" d="M240.5,219.6h0c.79-4.68-.09-9.26-2-11.95a18.73,18.73,0,0,0-3.66,8.76h0a22.64,22.64,0,0,0,1,11.92C238,226.87,239.81,223.69,240.5,219.6Z"/><path class="cls-5" d="M235.56,229.39a1,1,0,0,1-.57-.58,24,24,0,0,1-1.1-12.62,20.15,20.15,0,0,1,3.91-9.31.83.83,0,0,1,.71-.34.92.92,0,0,1,.69.39c2.2,3.06,3.06,8,2.23,12.89h0c-.73,4.26-2.64,7.81-5.12,9.48a1.14,1.14,0,0,1-.3.13A.77.77,0,0,1,235.56,229.39Zm4-10a16.58,16.58,0,0,0-1.16-9.93,18.78,18.78,0,0,0-2.66,7.18,22.14,22.14,0,0,0,.51,10,13.4,13.4,0,0,0,3.31-7.24Z"/><path class="cls-8" d="M218.46,205.5c-8.88,41.7-7.17,78.07,3.83,81.24s27.11-28.05,36-69.74,7.17-78.06-3.83-81.24S227.34,163.81,218.46,205.5Z"/><polygon class="cls-16" points="339.62 205.07 324.1 281.18 330.53 282.6 346.38 207.28 339.62 205.07"/><path class="cls-8" d="M330.36,283.7l-6.44-1.42a1,1,0,0,1-.62-.49,1.3,1.3,0,0,1-.12-.87l15.52-76.11a1.15,1.15,0,0,1,.44-.71.83.83,0,0,1,.73-.11l6.76,2.21a1.15,1.15,0,0,1,.67,1.35l-15.85,75.32a1,1,0,0,1-.76.83A.62.62,0,0,1,330.36,283.7Zm9.95-77.25L325.25,280.3l4.58,1,15.41-73.24Z"/><polygon class="cls-20" points="170.09 118 181.81 154.02 186.24 144.97 200.97 168.5 187.72 128.34 182.94 136.39 170.09 118"/><path class="cls-5" d="M200.21,169.16,186.34,147l-3.71,7.58a.9.9,0,0,1-.89.55,1,1,0,0,1-.81-.71l-11.73-36a1.23,1.23,0,0,1,.41-1.36.85.85,0,0,1,1.21.25l12.06,17.25,4.06-6.85a.89.89,0,0,1,.89-.46,1,1,0,0,1,.77.7l13.26,40.16a1.23,1.23,0,0,1-.43,1.39.81.81,0,0,1-.29.12A.89.89,0,0,1,200.21,169.16ZM183.72,137a.93.93,0,0,1-.74.47.87.87,0,0,1-.77-.4L173.05,124,182,151.43l3.43-7a.94.94,0,0,1,.76-.56.91.91,0,0,1,.82.45l10.51,16.79-10-30.4Z"/><polygon class="cls-20" points="139.32 262.77 170.01 259.79 164.25 252.67 186.17 243.18 151.9 246.69 156.8 253.92 139.32 262.77"/><path class="cls-5" d="M170.08,260.9l-30.68,3a1,1,0,0,1-1-.84,1.19,1.19,0,0,1,.55-1.3l16.34-8.27-4.13-6.08a1.27,1.27,0,0,1-.13-1.14,1,1,0,0,1,.79-.67l34.26-3.51a1,1,0,0,1,1,.87,1.16,1.16,0,0,1-.6,1.29l-20.56,8.9,4.76,5.89a1.27,1.27,0,0,1,.2,1.17,1,1,0,0,1-.72.7Zm-16.33-13.27,3.79,5.59a1.26,1.26,0,0,1,.18,1,1.07,1.07,0,0,1-.55.76L145,261.09,168,258.87l-4.39-5.42a1.29,1.29,0,0,1-.24-1,1.1,1.1,0,0,1,.6-.8l15.25-6.6Z"/><polygon class="cls-20" points="103.01 177.47 150.47 205.11 147.31 188.61 186.73 197.49 133.59 166.91 135.4 182.68 103.01 177.47"/><path class="cls-5" d="M150.05,206.11l-47.46-27.63a1.21,1.21,0,0,1-.48-1.33.94.94,0,0,1,1-.78l31.16,5-1.64-14.31A1.23,1.23,0,0,1,133,166a.83.83,0,0,1,1-.1l53.14,30.59a1.2,1.2,0,0,1,.48,1.35.94.94,0,0,1-1.08.75l-38-8.56,2.84,14.83a1.24,1.24,0,0,1-.33,1.13.93.93,0,0,1-.43.22A.81.81,0,0,1,150.05,206.11Zm-2.56-18.6,32.44,7.31-45.16-26,1.57,13.7a1.25,1.25,0,0,1-.27.94.85.85,0,0,1-.79.31l-26.64-4.27,40.47,23.56-2.72-14.21a1.28,1.28,0,0,1,.24-1,.9.9,0,0,1,.52-.32A.78.78,0,0,1,147.49,187.51Z"/><path class="cls-14" d="M482.05,414.62l-77-27.45-43.23,61s20.08,74.8,106.27,93.67,135.79-75.5,120.77-162.32S532.25,264,532.25,264L485.6,365.27c-8.45,29.44-17.48,43.8-17.48,43.8"/><path class="cls-21" d="M532.25,264s41.61,28.69,56.64,115.52S554.31,560.68,468.12,541.8s-106.27-93.67-106.27-93.67l43.23-61,77,27.45"/><path class="cls-21" d="M468.12,409.07s9-14.36,17.48-43.8"/><path class="cls-2" d="M370.88,433s-69.69-62.39-75.57-82.59c-4.93-16.93,25.27,18.13,25.27,18.13s-23.53-22.51-20.66-29.37S327,361,327,361s-25.74-27.83-22-32.51,28.4,25.39,28.4,25.39-26.43-28-22.14-33.58,29.3,25.25,29.3,25.25S327,324.16,331.6,321.73s29.93,43.31,60.85,68.15C410.16,404.1,370.88,433,370.88,433Z"/><path class="cls-22" d="M331.82,351.59a132.43,132.43,0,0,1-15.9-19.3c-1.09-1.66-7.65-11.23-3.11-12.33,1.42-.35,3,.61,4.17,1.32a37.38,37.38,0,0,1,5.47,4.32,134.19,134.19,0,0,1,11,11.62c2.12,2.47,4.21,5,6.21,7.56.27.34.82-.1.59-.46q-2.22-3.57-4.26-7.26c-2-3.63-4.43-7.58-5.32-11.69a4.52,4.52,0,0,1,.1-2.93c.69-1.26,2.44.09,3.16.66a32.4,32.4,0,0,1,5,5.46q4.41,5.52,8.7,11.1c3.4,4.4,6.79,8.82,10.09,13.29,2,2.7,3.89,5.45,6.06,8,5.74,6.79,12,13.19,18.15,19.57,5.5,5.66,10.94,11.53,16.85,16.78.36.32.89-.21.53-.53-5.33-4.74-10.24-10-15.21-15.1-6.59-6.76-13.2-13.54-19.33-20.71-2.33-2.73-4.36-5.65-6.49-8.53-3.35-4.52-6.77-9-10.22-13.45-3-3.86-6-7.71-9-11.52-1-1.27-7.69-9.65-9.09-4.93-.5,1.69.08,3.54.66,5.13a56.55,56.55,0,0,0,2.75,6c1.82,3.53,3.81,7,5.88,10.36l.39.62.59-.45a151.32,151.32,0,0,0-17.49-19.42,34.88,34.88,0,0,0-5.58-4.33c-1.24-.74-2.82-1.58-4.32-1.31-4.85.89-.63,8.34.6,10.47,4.75,8.25,11.27,15.66,17.88,22.46a.38.38,0,0,0,.53-.53Z"/><path class="cls-22" d="M325.9,359.14c-4.43-4.68-8.73-9.49-12.85-14.45a77.53,77.53,0,0,1-7.46-10c-1-1.66-2.93-5.83-.23-6.95,1.64-.67,3.71.53,5,1.39a34.68,34.68,0,0,1,7.93,7.88c.29.38.82-.15.53-.53a38.82,38.82,0,0,0-7.27-7.44,9.67,9.67,0,0,0-5.13-2.21c-3.17-.09-3.51,3.28-2.74,5.65,1.1,3.41,3.79,6.48,6,9.25,3.07,3.91,6.33,7.67,9.65,11.37,2,2.22,4,4.43,6,6.59.34.35.87-.18.53-.53Z"/><path class="cls-22" d="M317.87,365.34c-2.28-2.34-4.45-4.79-6.59-7.26a84.28,84.28,0,0,1-9.35-12.34c-1-1.73-2.63-4.58-1.95-6.73.55-1.73,2.73-.95,3.89-.4,4,1.92,7.36,5.44,10.36,8.64.33.36.86-.17.53-.53-3-3.17-6.24-6.57-10.16-8.59-1.34-.68-3.57-1.61-4.82-.26s-.52,3.8.05,5.29c1.71,4.52,5.14,8.5,8.17,12.19s6.07,7.17,9.34,10.52c.34.35.87-.18.53-.53Z"/><path class="cls-22" d="M307.86,354c-1.34-1.55-2.73-3-4.17-4.49-1.81-1.82-4-4.28-6.44-5.18a2.27,2.27,0,0,0-2.58.74c-1.29,1.46-1,3.73-.57,5.45,1.3,5.15,4.61,9.88,7.65,14.13,2.89,4.05,6,7.92,9.23,11.71.67.78,1.31,1.5,2,2.22l7.4,7.37q13.14,13.05,26.46,25.91c4.39,4.22,8.8,8.41,13.28,12.52,3,2.74,6,5.53,9.19,8,.44.34.89.67,1.35,1s.78-.39.38-.65a63.88,63.88,0,0,1-7.62-6.32c-4.07-3.65-8.05-7.4-12-11.17Q338,402.38,324.82,389.26c-5.15-5.09-10.5-10-15.12-15.59-4.86-5.84-9.78-12-13.14-18.85-1.12-2.29-2.71-5.57-1.89-8.21.25-.78.88-1.59,1.57-1.68,1.31-.19,2.91,1.42,3.8,2.18a67.24,67.24,0,0,1,6.15,6.14l1.14,1.28c.31.37.84-.17.53-.53Z"/><path class="cls-23" d="M364.36,452.83a278.48,278.48,0,0,1-12.74-26.22l32.95-50.2,23.52,12.34Z"/><path class="cls-24" d="M487.43,164.58h15.36s18.92,11.07,18.1,24.9v28.31a2.14,2.14,0,0,1,1.3,2.37,7.8,7.8,0,0,1-.3,2.58v17.54l2,1,.22,16.89c.09,6.25-4.32,11.45-9.79,11.54l-6.34.11c-5.47.09-10-4.95-10.1-11.2l-.2-14.65-9.22.16c-10.59.19-19.41-11.1-19.59-25.09l-.37-28.65C468.32,176.36,476.84,164.76,487.43,164.58Z"/><path d="M500.45,199.41c0,2.28-1.51,4.15-3.44,4.18s-3.51-1.78-3.54-4.05,1.51-4.15,3.44-4.18S500.42,197.14,500.45,199.41Z"/><path d="M477.6,199.22a3.3,3.3,0,0,1-2.93,3.57,3.56,3.56,0,1,1,2.93-3.57Z"/><path class="cls-25" d="M481.15,216s1.83,6,5.54,6.34,6.55-4.55,6.71-8.34Z"/><polyline class="cls-26" points="486.43 208.56 481.01 205.6 485.85 195.57"/><path d="M503.42,191.39l-5.61-2.22-.81-.32a.63.63,0,0,0-.77.44.64.64,0,0,0,.44.77l5.61,2.21.81.32a.63.63,0,0,0,.77-.43.64.64,0,0,0-.44-.77Z"/><path d="M477.37,190.22l-5.24.09-.76,0a.63.63,0,0,0,0,1.25l5.25-.09.75,0a.63.63,0,0,0,0-1.25Z"/><path d="M522.45,214.07a8.29,8.29,0,0,1,6.16.81,16,16,0,0,1,.6-9.24c-4.59,3.79-11,3.36-15.15-1.38a14.83,14.83,0,0,1-3.46-7.54,11.7,11.7,0,0,1-4.39-3.12,15.54,15.54,0,0,1-3.62-11.18,11.86,11.86,0,0,1-2.3-2,13.25,13.25,0,0,1-1.54-2.13,10.57,10.57,0,0,1-15.41.14,13.2,13.2,0,0,1-.93,1.41c-4.58,5.65-12.17,5.85-17,.44a15,15,0,0,1-3.51-7.94,11.8,11.8,0,0,1-4.18-3,16,16,0,0,1-.38-20,12.16,12.16,0,0,1,2-2,15.6,15.6,0,0,1,3.32-10.11,11.23,11.23,0,0,1,8.28-4.36,14.79,14.79,0,0,1,2.47-4.57c3.85-4.75,9.81-5.6,14.46-2.56a14.62,14.62,0,0,1,2.65-5.21c4.58-5.66,12.18-5.86,17-.45a14.05,14.05,0,0,1,2.52,4.18c.18-.25.32-.53.51-.77,4.12-5.08,10.95-5.26,15.26-.4a12.54,12.54,0,0,1,2.35,3.94,10.63,10.63,0,0,1,13.28,2.62,15.19,15.19,0,0,1,3.61,9,8.45,8.45,0,0,1,6.89,3,12.42,12.42,0,0,1,1.92,12.67,11.59,11.59,0,0,1,6.57,3.83,16.41,16.41,0,0,1,.39,20.52,11.89,11.89,0,0,1-5.53,3.87,13.81,13.81,0,0,1-.39,16.24,9.71,9.71,0,0,1-6.38,3.64,15.52,15.52,0,0,1-.39,18.33c-3.78,4.68-9.69,5.47-14.22,2.34a12.69,12.69,0,0,1-2.48,9.79,8.7,8.7,0,0,1-8.58,3.31Z"/><path class="cls-2" d="M542,209c.1,8-5.33,14.53-12.14,14.65s-12.4-6.24-12.5-14.21,5.33-14.52,12.13-14.64S541.9,201.08,542,209Z"/><path d="M523.45,211.29c-.19-2.78.66-6.3,3.24-7.76a7,7,0,0,1,4.22-.68c.52.06.52-.77,0-.83a6.88,6.88,0,0,0-6.69,2.72,10.48,10.48,0,0,0-1.58,5.28,10.77,10.77,0,0,0,0,1.27c0,.53.86.53.83,0Z"/><path class="cls-27" d="M517.36,209.48a15.71,15.71,0,0,1,3.58-10.39"/><path class="cls-27" d="M520.94,199.09a11.51,11.51,0,0,1,8.55-4.25c6.81-.12,12.41,6.24,12.51,14.2s-5.33,14.53-12.14,14.65a10.84,10.84,0,0,1-5.83-1.6,18.25,18.25,0,0,1-2.82-2.24"/><path class="cls-12" d="M488.73,276.67l44.35-1.8a3.35,3.35,0,0,0,2.89-3.65l-.62-21a3.25,3.25,0,0,0-3.08-3.41l-44.36,1.8a3.35,3.35,0,0,0-2.89,3.65l.62,21A3.24,3.24,0,0,0,488.73,276.67Z"/><path class="cls-28" d="M788,453.05H671.14c-8.41,0-15.22,8-15.22,18v62s6.67,17.77,15,16.51h30l-1.65,23.94L719,550.64h67.47c8.25,0,15-7.75,15.2-17.49.37-17.34,1-43.8,1.51-61.52C803.5,461.47,796.6,453.05,788,453.05Z"/><polygon class="cls-17" points="785.09 502.92 767.4 471.11 748.76 502.55 748.45 502.92 762.45 502.92 762.45 524.36 770.45 524.36 770.45 502.92 785.09 502.92"/><path class="cls-17" d="M693.23,491c0-4.67-2.34-9.16-6.43-11.12a1.49,1.49,0,0,0-.69-.13,2.69,2.69,0,0,0-.47.05,4.67,4.67,0,0,0-3.62-1.14c-6.11,0-10.25,6.92-10.25,13.26A11.82,11.82,0,0,0,683.18,504C689.12,504,693.23,497.62,693.23,491Zm-10.36,6.92a5.6,5.6,0,0,1-5.65-5.69c0-4.17,2.15-7.43,5.32-7.43a1.52,1.52,0,0,1,.33,0,8.15,8.15,0,0,0,.9.05,1.2,1.2,0,0,0,.35,0c2.06.81,3.7,3.47,3.7,6.06C687.82,494,686,497.92,682.87,497.92Z"/><path class="cls-17" d="M715,500.94a1.8,1.8,0,0,0-.68-.11,2.06,2.06,0,0,0-.45.05,4.59,4.59,0,0,0-3.65-1.17c-6.1,0-10.27,6.92-10.27,13.24a11.67,11.67,0,0,0,11.46,12.14c5.93,0,10-6.42,10-13C721.46,507.39,719.09,502.89,715,500.94Zm-3.93,18a5.58,5.58,0,0,1-5.65-5.69c0-4.13,2.15-7.43,5.28-7.43a1.76,1.76,0,0,1,.37,0,5.77,5.77,0,0,0,.88.08,1,1,0,0,0,.4,0c2,.81,3.67,3.46,3.67,6.09C716,515.07,714.19,519,711.09,519Z"/><path class="cls-17" d="M705.91,482.69a10.83,10.83,0,0,0,.69-3.27,2.94,2.94,0,0,0-2.78-3.22c-2.16,0-2.84,2.7-3.38,5.1v0c-12.65,39-12.84,39.35-13,39.67a4,4,0,0,0-.74,2.2c0,1.68.91,3.57,3.22,3.57,1.86,0,2.21-1.54,2.55-3.05v0Z"/><ellipse class="cls-3" cx="734.44" cy="100.77" rx="29.51" ry="34.85"/><path class="cls-29" d="M294.32,403.16V532.94h-144V403.16c0-7.69,5.26-13.92,11.76-13.92H282.57C289.07,389.24,294.32,395.47,294.32,403.16Z"/><path class="cls-20" d="M294.32,403.38v12.67h-144V403.38c0-7.82,5.26-14.14,11.76-14.14H282.57C289.07,389.24,294.32,395.56,294.32,403.38Z"/><path class="cls-7" d="M260.55,405.38c0,2.34-1.6,4.23-3.59,4.23s-3.58-1.89-3.58-4.23,1.6-4.23,3.58-4.23S260.55,403,260.55,405.38Z"/><path class="cls-30" d="M272,405.38c0,2.34-1.61,4.23-3.59,4.23s-3.59-1.89-3.59-4.23,1.61-4.23,3.59-4.23S272,403,272,405.38Z"/><path class="cls-31" d="M283.92,405.38c0,2.34-1.61,4.23-3.59,4.23s-3.59-1.89-3.59-4.23,1.61-4.23,3.59-4.23S283.92,403,283.92,405.38Z"/><polyline class="cls-32" points="163.79 439.11 163.79 518.46 286.82 518.46"/><rect class="cls-20" x="185.29" y="457.87" width="17" height="53.62"/><rect class="cls-33" x="219.3" y="447.15" width="17" height="64.34"/><rect class="cls-9" x="254.31" y="439.64" width="17" height="73.99"/><line class="cls-32" x1="186.95" y1="446.58" x2="254.81" y2="428.63"/><polyline class="cls-32" points="243.11 427.66 257.74 429.74 246.91 438.02"/><path class="cls-34" d="M294.82,403.7V533.48h-144V403.7c0-7.7,5.26-13.92,11.76-13.92H283.07C289.57,389.78,294.82,396,294.82,403.7Z"/><line class="cls-1" x1="286.78" y1="212.76" x2="286.78" y2="223.76"/><path class="cls-1" d="M285.9,224.74a1.18,1.18,0,0,1-1.12-1.25v-11a1.17,1.17,0,0,1,1.12-1.24.9.9,0,0,1,.88,1.24v11A.91.91,0,0,1,285.9,224.74Z"/><line class="cls-1" x1="286.78" y1="239.76" x2="286.78" y2="251.76"/><path class="cls-1" d="M285.9,252.68a1.17,1.17,0,0,1-1.12-1.24v-11a1.18,1.18,0,0,1,1.12-1.24.9.9,0,0,1,.88,1.24v11A.9.9,0,0,1,285.9,252.68Z"/><line class="cls-1" x1="303.82" y1="231.76" x2="293.8" y2="231.76"/><path class="cls-1" d="M303.25,233.76h-9.36a1.38,1.38,0,0,1-1.05-1.31c0-.65.47-1.17,1.05-.69h9.36c.59-.48,1.06,0,1.06.69A1.38,1.38,0,0,1,303.25,233.76Z"/><line class="cls-1" x1="277.76" y1="231.76" x2="267.73" y2="231.76"/><path class="cls-1" d="M277.81,233.76h-9.36a1.38,1.38,0,0,1-1.06-1.31c0-.65.47-1.17,1.06-.69h9.36c.58-.48,1.05,0,1.05.69A1.38,1.38,0,0,1,277.81,233.76Z"/><line class="cls-1" x1="273.35" y1="245.7" x2="280.36" y2="238"/><path class="cls-1" d="M273.35,246.92a1.08,1.08,0,0,1-.79-.36,1.3,1.3,0,0,1,0-1.73l7-7.7a1,1,0,0,1,1.58,0,1.31,1.31,0,0,1,0,1.74l-7,7.69A1.06,1.06,0,0,1,273.35,246.92Z"/><line class="cls-1" x1="291.34" y1="225.94" x2="298.35" y2="218.24"/><path class="cls-1" d="M291.34,227.16a1.08,1.08,0,0,1-.79-.36,1.3,1.3,0,0,1,0-1.73l7-7.7a1,1,0,0,1,1.58,0,1.31,1.31,0,0,1,0,1.74l-7,7.69A1,1,0,0,1,291.34,227.16Z"/><line class="cls-1" x1="273.35" y1="218.24" x2="280.36" y2="225.94"/><path class="cls-1" d="M280.36,227.16a1.06,1.06,0,0,1-.79-.36l-7-7.69a1.31,1.31,0,0,1,0-1.74,1,1,0,0,1,1.58,0l7,7.7a1.3,1.3,0,0,1,0,1.73A1.08,1.08,0,0,1,280.36,227.16Z"/><line class="cls-1" x1="291.34" y1="238" x2="298.35" y2="245.7"/><path class="cls-1" d="M298.35,246.92a1.06,1.06,0,0,1-.79-.36l-7-7.69a1.31,1.31,0,0,1,0-1.74,1,1,0,0,1,1.58,0l7,7.7a1.3,1.3,0,0,1,0,1.73A1.06,1.06,0,0,1,298.35,246.92Z"/><line class="cls-1" x1="770.45" y1="276.64" x2="770.45" y2="288.44"/><path class="cls-2" d="M771.28,289a.91.91,0,0,1-.83-1.33V275.91a.91.91,0,0,1,.83-1.33,1.3,1.3,0,0,1,1.17,1.33V287.7A1.3,1.3,0,0,1,771.28,289Z"/><line class="cls-1" x1="770.45" y1="305.59" x2="770.45" y2="317.39"/><path class="cls-2" d="M771.28,319a.92.92,0,0,1-.83-1.33V305.88a.92.92,0,0,1,.83-1.34,1.31,1.31,0,0,1,1.17,1.34v11.79A1.31,1.31,0,0,1,771.28,319Z"/><line class="cls-1" x1="789.46" y1="297.02" x2="778.46" y2="297.02"/><path class="cls-2" d="M788.44,297H779.1c-.58.43-1.05-.12-1.05-.81a1.32,1.32,0,0,1,1.05-1.34h9.34a1.33,1.33,0,0,1,1.06,1.34C789.5,296.9,789,297.45,788.44,297Z"/><line class="cls-1" x1="763.45" y1="297.02" x2="752.45" y2="297.02"/><path class="cls-2" d="M763.05,297h-9.34c-.58.43-1.05-.12-1.05-.81a1.32,1.32,0,0,1,1.05-1.34h9.34a1.33,1.33,0,0,1,1.06,1.34C764.11,296.9,763.63,297.45,763.05,297Z"/><line class="cls-1" x1="758.6" y1="311.51" x2="765.6" y2="303.26"/><path class="cls-2" d="M758.61,312.83a1,1,0,0,1-.79-.39,1.48,1.48,0,0,1,0-1.86l7-8.25a1,1,0,0,1,1.58,0,1.5,1.5,0,0,1,0,1.86l-7,8.25A1,1,0,0,1,758.61,312.83Z"/><line class="cls-1" x1="776.56" y1="290.32" x2="783.55" y2="282.07"/><path class="cls-2" d="M776.56,291.64a1,1,0,0,1-.79-.39,1.48,1.48,0,0,1,0-1.86l7-8.25a1,1,0,0,1,1.58,0,1.48,1.48,0,0,1,0,1.86l-7,8.25A1,1,0,0,1,776.56,291.64Z"/><line class="cls-1" x1="758.6" y1="282.07" x2="765.6" y2="290.32"/><path class="cls-2" d="M765.6,291.64a1,1,0,0,1-.79-.39l-7-8.25a1.48,1.48,0,0,1,0-1.86,1,1,0,0,1,1.57,0l7,8.25a1.5,1.5,0,0,1,0,1.86A1,1,0,0,1,765.6,291.64Z"/><line class="cls-1" x1="776.56" y1="303.26" x2="783.55" y2="311.51"/><path class="cls-2" d="M783.55,312.83a1,1,0,0,1-.79-.39l-7-8.25a1.48,1.48,0,0,1,0-1.86,1,1,0,0,1,1.58,0l7,8.25a1.48,1.48,0,0,1,0,1.86A1,1,0,0,1,783.55,312.83Z"/><line class="cls-1" x1="148.28" y1="603.72" x2="148.28" y2="614.44"/><path class="cls-2" d="M148.24,616.15a1,1,0,0,1-1-1.34V603a1,1,0,0,1,1-1.33,1.12,1.12,0,0,1,1,1.33v11.79A1.13,1.13,0,0,1,148.24,616.15Z"/><line class="cls-1" x1="148.28" y1="632.67" x2="148.28" y2="645.54"/><path class="cls-2" d="M148.24,646.11a1,1,0,0,1-1-1.33V633a1,1,0,0,1,1-1.33,1.12,1.12,0,0,1,1,1.33v11.79A1.12,1.12,0,0,1,148.24,646.11Z"/><line class="cls-1" x1="166.29" y1="624.09" x2="156.28" y2="624.09"/><path class="cls-2" d="M165.78,625.17h-9.34c-.58.43-1.06-.13-1.06-.82a1.33,1.33,0,0,1,1.06-1.33h9.34a1.32,1.32,0,0,1,1.05,1.33C166.83,625,166.36,625.6,165.78,625.17Z"/><line class="cls-1" x1="140.28" y1="624.09" x2="130.28" y2="624.09"/><path class="cls-2" d="M140.39,625.17h-9.34c-.59.43-1.06-.13-1.06-.82a1.32,1.32,0,0,1,1.06-1.33h9.34a1.32,1.32,0,0,1,1.05,1.33C141.44,625,141,625.6,140.39,625.17Z"/><line class="cls-1" x1="135.94" y1="638.62" x2="142.93" y2="630.37"/><path class="cls-2" d="M135.94,639.94a1,1,0,0,1-.79-.39,1.48,1.48,0,0,1,0-1.86l7-8.25a1,1,0,0,1,1.58,0,1.48,1.48,0,0,1,0,1.86l-7,8.25A1,1,0,0,1,135.94,639.94Z"/><line class="cls-1" x1="153.89" y1="617.43" x2="160.89" y2="609.18"/><path class="cls-2" d="M153.89,618.75a1,1,0,0,1-.79-.39,1.5,1.5,0,0,1,0-1.86l7-8.25a1,1,0,0,1,1.57,0,1.48,1.48,0,0,1,0,1.86l-7,8.25A1,1,0,0,1,153.89,618.75Z"/><line class="cls-1" x1="135.94" y1="609.18" x2="142.93" y2="617.43"/><path class="cls-2" d="M142.93,618.75a1,1,0,0,1-.79-.39l-7-8.25a1.48,1.48,0,0,1,0-1.86,1,1,0,0,1,1.58,0l7,8.25a1.48,1.48,0,0,1,0,1.86A1,1,0,0,1,142.93,618.75Z"/><line class="cls-1" x1="153.89" y1="630.37" x2="160.89" y2="638.62"/><path class="cls-2" d="M160.88,639.94a1,1,0,0,1-.78-.39l-7-8.25a1.5,1.5,0,0,1,0-1.86,1,1,0,0,1,1.58,0l7,8.25a1.48,1.48,0,0,1,0,1.86A1,1,0,0,1,160.88,639.94Z"/><ellipse class="cls-2" cx="276.32" cy="566.72" rx="4" ry="4.83"/><path class="cls-2" d="M731.78,423.45c0,2.49-1.71,4.52-3.83,4.52s-3.82-2-3.82-4.52,1.71-4.52,3.82-4.52S731.78,421,731.78,423.45Z"/><path class="cls-2" d="M753,660.48c0,2.5-1.72,4.52-3.83,4.52s-3.83-2-3.83-4.52,1.72-4.52,3.83-4.52S753,658,753,660.48Z"/><ellipse class="cls-2" cx="765.45" cy="366.72" rx="2" ry="2.14"/><ellipse class="cls-2" cx="712.44" cy="628.38" rx="2" ry="2.14"/><ellipse class="cls-2" cx="748.45" cy="612.3" rx="2" ry="2.14"/><ellipse class="cls-2" cx="708.44" cy="367.79" rx="2" ry="2.14"/><path d="M325.24,255.91a1.72,1.72,0,0,1-2.55.5,2.15,2.15,0,0,1-.46-2.81,1.74,1.74,0,0,1,2.56-.49A2.14,2.14,0,0,1,325.24,255.91Z"/><path d="M327.66,170a3.14,3.14,0,0,1-4.82,1,4.56,4.56,0,0,1-.85-5.69,3.14,3.14,0,0,1,4.82-1A4.56,4.56,0,0,1,327.66,170Z"/><path d="M358.66,260.42a3.27,3.27,0,0,1-4.83.93,4,4,0,0,1-.85-5.3,3.27,3.27,0,0,1,4.83-.94A4.06,4.06,0,0,1,358.66,260.42Z"/><path class="cls-2" d="M313,570.06a1.63,1.63,0,1,1-1.61-1.89A1.76,1.76,0,0,1,313,570.06Z"/><path class="cls-2" d="M268.29,599.29c0,2.21-1.53,4-3.4,4s-3.4-1.8-3.4-4,1.52-4,3.4-4S268.29,597.07,268.29,599.29Z"/><path class="cls-2" d="M719.7,324.19a3,3,0,1,1-3-3.5A3.26,3.26,0,0,1,719.7,324.19Z"/><polygon class="cls-35" points="0 0 999.33 4.29 999.95 799.66 4.6 799.66 0 0"/></g></g></svg>