<svg xmlns="http://www.w3.org/2000/svg" xmlns:xlink="http://www.w3.org/1999/xlink" viewBox="0 0 2204.35 2709.31"><defs><style>.cls-1{fill:#fcfbfc;}.cls-12,.cls-14,.cls-2,.cls-20,.cls-25,.cls-26,.cls-31,.cls-32,.cls-34{fill:none;}.cls-10,.cls-2{stroke:#121924;}.cls-14,.cls-2,.cls-20,.cls-22,.cls-23,.cls-24,.cls-25,.cls-26,.cls-31{stroke-linecap:round;}.cls-2,.cls-20,.cls-22,.cls-23,.cls-24,.cls-25,.cls-26,.cls-31{stroke-linejoin:round;}.cls-3{fill:url(#Gradiente_sem_nome_69);}.cls-4,.cls-43{fill:#050004;}.cls-19,.cls-5{fill:#ffd387;}.cls-32,.cls-5{stroke:#020202;}.cls-10,.cls-11,.cls-12,.cls-14,.cls-27,.cls-32,.cls-5{stroke-miterlimit:10;}.cls-6{fill:#f34919;}.cls-7{fill:#000201;}.cls-35,.cls-40,.cls-8{fill:#7c55ff;}.cls-9{fill:#f8f7f5;}.cls-10,.cls-13{fill:#5865ff;}.cls-10,.cls-24,.cls-25,.cls-32{stroke-width:0.5px;}.cls-11,.cls-18,.cls-22,.cls-23,.cls-24{fill:#fff;}.cls-11,.cls-12,.cls-14,.cls-23,.cls-25,.cls-27{stroke:#000;}.cls-11,.cls-12,.cls-14,.cls-20,.cls-22,.cls-23,.cls-26{stroke-width:0.75px;}.cls-15{fill:#fff9f3;}.cls-16{fill:#f381d8;}.cls-17{fill:#f8eee2;}.cls-20{stroke:#101010;}.cls-21{fill:#0f110e;}.cls-22,.cls-24,.cls-26{stroke:#0f110e;}.cls-27,.cls-29{fill:#ffb3da;}.cls-28{fill:#faf0e3;}.cls-30{fill:#b7b8fb;}.cls-31{stroke:#0b0a10;stroke-width:0.94px;}.cls-33,.cls-57,.cls-59{fill:#121924;}.cls-35{font-size:133.2px;}.cls-35,.cls-52,.cls-59{font-family:Poppins-SemiBold, Poppins SemiBold;font-weight:600;}.cls-36{letter-spacing:-0.01em;}.cls-37{letter-spacing:0em;}.cls-38{letter-spacing:-0.01em;}.cls-39{letter-spacing:0.02em;}.cls-40{font-size:188.94px;font-family:Poppins-Black, Poppins Black;}.cls-40,.cls-57{font-weight:800;}.cls-41{letter-spacing:-0.01em;}.cls-42{letter-spacing:0.02em;}.cls-43{font-size:21.58px;font-family:Poppins-Regular, Poppins Regular;letter-spacing:-0.01em;}.cls-44,.cls-52{letter-spacing:0em;}.cls-45{letter-spacing:-0.01em;}.cls-46{letter-spacing:0em;}.cls-47{letter-spacing:0em;}.cls-48{letter-spacing:0em;}.cls-49{letter-spacing:0.01em;}.cls-50{letter-spacing:-0.01em;}.cls-51{letter-spacing:0em;}.cls-53{letter-spacing:-0.01em;}.cls-54{letter-spacing:0em;}.cls-55{letter-spacing:-0.01em;}.cls-56{letter-spacing:0em;}.cls-57{font-size:54.2px;font-family:Poppins-ExtraBold, Poppins ExtraBold;}.cls-58{letter-spacing:-0.04em;}.cls-59{font-size:26.41px;}.cls-60{letter-spacing:0em;}.cls-61{letter-spacing:0.01em;}.cls-62{letter-spacing:0em;}.cls-63{letter-spacing:0.02em;}.cls-64{letter-spacing:-0.01em;}.cls-65{letter-spacing:0em;}.cls-66{letter-spacing:0.01em;}.cls-67{font-size:24.74px;fill:#f6f6f6;font-family:Poppins-Bold, Poppins Bold;font-weight:700;}.cls-68{letter-spacing:-0.03em;}.cls-69{letter-spacing:0em;}.cls-70{letter-spacing:0em;}</style><linearGradient id="Gradiente_sem_nome_69" x1="1155.35" y1="1780.83" x2="1622.35" y2="1780.83" gradientUnits="userSpaceOnUse"><stop offset="0" stop-color="#fff"/><stop offset="0.94" stop-color="#f9f9f9"/></linearGradient></defs><g id="BACKGROUND"><rect class="cls-1" width="1919.14" height="1079.51"/></g><g id="OBJECTS"><ellipse cx="2109.4" cy="2706.5" rx="2.82" ry="2.82"/><ellipse cx="2081.59" cy="2665.68" rx="2.82" ry="2.82"/><path class="cls-2" d="M1089.5,2044.64v41.72a3,3,0,0,0,2.92,3.14h14.26a89,89,0,0,0,8,24.69h0l-14.69,19a3.3,3.3,0,0,0,.39,4.42l30.77,27.31a2.81,2.81,0,0,0,4.12-.41l11.8-15.3h0a75.9,75.9,0,0,0,16.44,7.16h0v22a3,3,0,0,0,2.92,3.14h39.13a3.06,3.06,0,0,0,3-3.14v-22.82a76.84,76.84,0,0,0,15.29-7.13l12.56,16.14a2.84,2.84,0,0,0,4.15.42l31.06-27.33a3.27,3.27,0,0,0,.39-4.4l-16.11-20.69h0a88.45,88.45,0,0,0,7.27-23.05h21.44a3.06,3.06,0,0,0,3-3.14v-41.72a3.06,3.06,0,0,0-3-3.14h-26.67c-1-2.45-2.1-4.85-3.3-7.18h0l14-18a3.28,3.28,0,0,0-.39-4.42l-31-27.29a2.83,2.83,0,0,0-4.15.41l-11.45,14.69a77.61,77.61,0,0,0-13.06-5.83v-18.25a3.06,3.06,0,0,0-3-3.14h-39.13a3,3,0,0,0-2.92,3.14V1993h0a74.46,74.46,0,0,0-13,5.29L1140.19,1985a2.79,2.79,0,0,0-4.11-.41l-30.77,27.3a3.29,3.29,0,0,0-.39,4.41l11.71,15.17a89.11,89.11,0,0,0-4.77,10h-19.44A3,3,0,0,0,1089.5,2044.64Zm46.26,30c0-29.08,22-52.67,49.22-52.67s49.21,23.59,49.21,52.67-22,52.67-49.21,52.67S1135.76,2103.69,1135.76,2074.6Z" transform="translate(-49.65 23.83)"/><path class="cls-2" d="M1433.5,1378.27v50.45a3.66,3.66,0,0,0,3.52,3.78h17.14a107.54,107.54,0,0,0,9.62,29.79h0l-17.68,23a4,4,0,0,0,.47,5.33l37,33a3.36,3.36,0,0,0,5-.51l14.19-18.45h0a91.2,91.2,0,0,0,19.77,8.64h0v26.48a3.67,3.67,0,0,0,3.52,3.79h48a3.67,3.67,0,0,0,3.51-3.79v-27.53a91.18,91.18,0,0,0,18.19-8.6l15,19.46a3.35,3.35,0,0,0,4.94.51l36.94-33a4,4,0,0,0,.47-5.33l-19.16-25h0a107.74,107.74,0,0,0,8.64-27.81H1668a3.66,3.66,0,0,0,3.51-3.78v-50.45a3.66,3.66,0,0,0-3.51-3.77h-31.74q-1.77-4.43-3.92-8.63h0l16.68-21.65a4,4,0,0,0-.46-5.31l-37-32.84a3.36,3.36,0,0,0-4.94.5L1593,1324.25a90.92,90.92,0,0,0-15.54-7v-22a3.66,3.66,0,0,0-3.51-3.77h-48a3.66,3.66,0,0,0-3.52,3.77v20.92h0a90.43,90.43,0,0,0-15.7,6.37l-12.33-16a3.37,3.37,0,0,0-5-.51l-37,32.84a4,4,0,0,0-.47,5.31l14.09,18.26a102.77,102.77,0,0,0-5.73,12H1437A3.66,3.66,0,0,0,1433.5,1378.27Zm56,36.84c0-34.87,26.42-63.13,59-63.13s59,28.26,59,63.13-26.41,63.12-59,63.12S1489.47,1450,1489.47,1415.11Z" transform="translate(-49.65 23.83)"/><rect class="cls-3" x="1155.35" y="1447.83" width="467" height="666" rx="1.62"/><path class="cls-4" d="M1668.9,2091H1208.1a4.26,4.26,0,0,1-4.1-4.38V1427.38a4.26,4.26,0,0,1,4.1-4.38h460.8a4.26,4.26,0,0,1,4.1,4.38v659.24A4.26,4.26,0,0,1,1668.9,2091ZM1206,1427.33v659.36a2.23,2.23,0,0,0,2.14,2.31h460.7a2.26,2.26,0,0,0,2.16-2.33V1427.31a2.24,2.24,0,0,0-2.15-2.31H1208.16A2.25,2.25,0,0,0,1206,1427.33Z" transform="translate(-49.65 23.83)"/><path d="M1669.53,2091H1208.47a4.63,4.63,0,0,1-4.47-4.78V1426.78a4.64,4.64,0,0,1,4.47-4.78h461.06a4.64,4.64,0,0,1,4.47,4.78v659.44A4.64,4.64,0,0,1,1669.53,2091Zm-460.81-668a3.87,3.87,0,0,0-3.72,4v660a3.87,3.87,0,0,0,3.72,4h460.55a3.87,3.87,0,0,0,3.73-4V1427a3.87,3.87,0,0,0-3.73-4Zm460.75,666H1208.53a2.63,2.63,0,0,1-2.53-2.71V1426.71a2.63,2.63,0,0,1,2.53-2.71h460.94a2.63,2.63,0,0,1,2.53,2.71v659.58A2.63,2.63,0,0,1,1669.47,2089ZM1207,1426.93v660.15a1.86,1.86,0,0,0,1.78,1.92h460.44a1.86,1.86,0,0,0,1.78-1.92V1426.92a1.86,1.86,0,0,0-1.78-1.92H1208.79A1.87,1.87,0,0,0,1207,1426.93Z" transform="translate(-49.65 23.83)"/><rect class="cls-5" x="1175.85" y="1557.33" width="427" height="458"/><path class="cls-4" d="M1652,1993H1225a1,1,0,0,1-1-1V1534a1,1,0,0,1,1-1H1652a1,1,0,0,1,1,1V1992A1,1,0,0,1,1652,1993Zm-426-2h425V1535H1226Z" transform="translate(-49.65 23.83)"/><path class="cls-6" d="M1246.31,2043c1.34,1.29,15.35,14.87,15.8,14.47,5.59-5,11-10.4,16.3-15.72,4.86-4.83,9.68-11,7.95-18.93a13,13,0,0,0-9.94-10.16,12.79,12.79,0,0,0-14.06,7.71.57.57,0,0,1-1.08,0c-2.61-5.5-8.49-8.89-14.9-7.17a13.06,13.06,0,0,0-8.17,6.94,13.94,13.94,0,0,0-1.47,6.72C1237,2033.62,1241.89,2038.72,1246.31,2043Z" transform="translate(-49.65 23.83)"/><path class="cls-4" d="M1262.2,2058.49c-1,0-3.48-2.19-15.81-14.07l-.72-.69h0c-4.65-4.45-9.63-9.78-9.89-16.85a14.83,14.83,0,0,1,1.58-7.25,14.14,14.14,0,0,1,8.78-7.47,13.69,13.69,0,0,1,15.67,7,13.63,13.63,0,0,1,14.78-7.61c5.19,1,9.5,5.37,10.72,11,1.86,8.53-3.43,15.13-8.24,19.92l-1,1c-5,4.92-10.06,10-15.31,14.74A.8.8,0,0,1,1262.2,2058.49ZM1247,2042.18l.72.7c9.87,9.5,13.21,12.46,14.3,13.3,5-4.57,10-9.47,14.75-14.23l1-1c4.43-4.41,9.31-10.44,7.67-17.93a12,12,0,0,0-9.16-9.38,11.82,11.82,0,0,0-13,7.14,1.58,1.58,0,0,1-1.39,1,1.59,1.59,0,0,1-1.42-.93,11.83,11.83,0,0,0-13.81-6.64,12.18,12.18,0,0,0-7.54,6.42,12.85,12.85,0,0,0-1.36,6.2c.24,6.26,4.7,11,9.25,15.39Z" transform="translate(-49.65 23.83)"/><path class="cls-7" d="M1367.34,2038.23a1.51,1.51,0,0,1-1.28-.75l-11.49-19a1.71,1.71,0,0,1-.06-1.67,1.51,1.51,0,0,1,1.34-.86h41.92a1.55,1.55,0,0,1,1.48,1.21,1.67,1.67,0,0,1-.71,1.84l-30.43,19A1.47,1.47,0,0,1,1367.34,2038.23ZM1356.6,2017l10.87,17.93,28.8-17.93Z" transform="translate(-49.65 23.83)"/><path class="cls-7" d="M1377.37,2058h0a1.56,1.56,0,0,1-1.36-.89l-10.19-20.47a1.68,1.68,0,0,1,.6-2.19l31.12-18.4a1.47,1.47,0,0,1,1.86.3,1.72,1.72,0,0,1,.25,2l-20.93,38.87A1.52,1.52,0,0,1,1377.37,2058Zm-9.67-22.2,9.68,19.45,19.87-36.92Z" transform="translate(-49.65 23.83)"/><path class="cls-7" d="M1336.86,2054H1321c-10.49,0-19-9.14-19-20.37s8.54-20.37,19-20.37,19,9.14,19,20.37v17A3.26,3.26,0,0,1,1336.86,2054Zm-16-38.6c-9.43,0-17.1,8.21-17.1,18.3s7.67,18.3,17.1,18.3h15.9a1.25,1.25,0,0,0,1.2-1.3v-17C1338,2023.61,1330.33,2015.4,1320.9,2015.4Z" transform="translate(-49.65 23.83)"/><path class="cls-7" d="M1613.94,2047.59a1.92,1.92,0,0,1-1.25-.48,2.12,2.12,0,0,1-.69-1.66v-35.38a2,2,0,0,1,1.92-2.07h27.16a2,2,0,0,1,1.92,2.06v35.29a2.16,2.16,0,0,1-.7,1.67,1.86,1.86,0,0,1-2.61-.14L1627.53,2034l-12.22,13A1.87,1.87,0,0,1,1613.94,2047.59ZM1614,2011v34l12.17-12.45a1.88,1.88,0,0,1,1.36-.58h0a1.84,1.84,0,0,1,1.36.58l12.11,12.33,0-33.91Z" transform="translate(-49.65 23.83)"/><ellipse class="cls-8" cx="1205.85" cy="1504.83" rx="28.5" ry="30"/><path class="cls-4" d="M1256.15,1511.7c-16.07,0-29.15-14-29.15-31.19s13.08-31.18,29.15-31.18,29.14,14,29.14,31.18S1272.22,1511.7,1256.15,1511.7Zm0-60.3c-15,0-27.21,13.06-27.21,29.11s12.21,29.12,27.21,29.12,27.21-13.06,27.21-29.12S1271.15,1451.4,1256.15,1451.4Z" transform="translate(-49.65 23.83)"/><path class="cls-9" d="M1249.46,1471.29a6.7,6.7,0,1,0,6.69-7.15A6.93,6.93,0,0,0,1249.46,1471.29Z" transform="translate(-49.65 23.83)"/><path class="cls-4" d="M1256.15,1479.49a8.21,8.21,0,1,1,7.65-8.2A8,8,0,0,1,1256.15,1479.49Zm0-14.32a6.14,6.14,0,1,0,5.72,6.12A5.94,5.94,0,0,0,1256.15,1465.17Z" transform="translate(-49.65 23.83)"/><path class="cls-9" d="M1245.73,1480h20.57a1.7,1.7,0,0,1,1.7,1.7v11.65a3.65,3.65,0,0,1-3.65,3.65h-16.71a3.65,3.65,0,0,1-3.65-3.65v-11.63A1.73,1.73,0,0,1,1245.73,1480Z" transform="translate(2462.35 3000.83) rotate(180)"/><path class="cls-4" d="M1263.2,1498h-14.46a5.87,5.87,0,0,1-5.74-6v-1.38a11.42,11.42,0,0,1,11.16-11.64h3.68a11.42,11.42,0,0,1,11.16,11.64V1492A5.93,5.93,0,0,1,1263.2,1498Zm-9-17a9.43,9.43,0,0,0-9.17,9.66V1492a3.87,3.87,0,0,0,3.76,4h14.42a3.93,3.93,0,0,0,3.82-4v-1.31a9.43,9.43,0,0,0-9.17-9.66Z" transform="translate(-49.65 23.83)"/><path class="cls-10" d="M1154.45,1613.18l54.19-49.18,110,87.2,128.45-110.63,11.53,210c-66.45,45.16-163.85,66.85-196.7,45.4-37.92-24.75-94-153.09-94-153.09Z" transform="translate(-49.65 23.83)"/><path class="cls-11" d="M1233.47,1583.71,1168,1642.88c-8.41-17.46-13.54-29.7-13.54-29.7l54.19-49.18Z" transform="translate(-49.65 23.83)"/><line class="cls-12" x1="1152.76" y1="1592.93" x2="1175" y2="1615.51"/><line class="cls-12" x1="1142.61" y1="1602.7" x2="1162.78" y2="1626.56"/><line class="cls-12" x1="1131.32" y1="1612.94" x2="1150.49" y2="1637.66"/><line class="cls-12" x1="1121.01" y1="1622.71" x2="1138.31" y2="1648.67"/><line class="cls-12" x1="1112.89" y1="1629.67" x2="1128.87" y2="1657.2"/><polyline class="cls-10" points="1269.02 1675.03 1397.46 1564.4 1408.99 1774.4"/><path class="cls-11" d="M1313.4,1953.57l4,26.65c1.19,8.06,6.68,14.23,13.53,15.17,20.59,2.82,65.11,8.23,103.64,8.23,37.92,0,82.16-6.18,101.58-12.21a18.26,18.26,0,0,0,12.7-15.4l2.76-21.2c1.45-11.15-5.79-21.24-15.3-21.31l-207.41-1.63C1319.13,1931.79,1311.72,1942.2,1313.4,1953.57Z" transform="translate(-49.65 23.83)"/><line class="cls-12" x1="1486.45" y1="2014.77" x2="1484.85" y2="1956.85"/><line class="cls-12" x1="1468.67" y1="2019.04" x2="1467.04" y2="1956.85"/><line class="cls-12" x1="1453.07" y1="2021.7" x2="1450.66" y2="1956.58"/><line class="cls-12" x1="1432.02" y1="1956.58" x2="1434.75" y2="2024.07"/><line class="cls-12" x1="1408.99" y1="1956.25" x2="1411.18" y2="2025.97"/><line class="cls-12" x1="1388.67" y1="2025.97" x2="1387.32" y2="1956.08"/><line class="cls-12" x1="1367.85" y1="1955.83" x2="1367.85" y2="2026.83"/><line class="cls-12" x1="1345.85" y1="1955.83" x2="1345.85" y2="2025.83"/><line class="cls-12" x1="1327.85" y1="1955.83" x2="1328.49" y2="2024.83"/><line class="cls-12" x1="1309.57" y1="1955.23" x2="1311.36" y2="2022.43"/><line class="cls-12" x1="1291.38" y1="1955.23" x2="1294.35" y2="2020.46"/><line class="cls-12" x1="1281.24" y1="2018.75" x2="1275.96" y2="1955.23"/><path class="cls-13" d="M1324.17,1958.08c-7.36-3.9-14.79-9.11-14.7-16,2.42-213.59,56.28-384.32,122.37-384.32s120,170.73,122.37,384.32c-1.74,8.1-7.13,12.59-14.7,16C1489.86,1980.33,1372.43,1983.6,1324.17,1958.08Z" transform="translate(-49.65 23.83)"/><path class="cls-14" d="M1554.21,1942.09c-1.74,8.1-7.13,12.59-14.7,16-49.65,22.25-167.08,25.52-215.34,0-7.36-3.9-14.79-9.11-14.7-16,2.42-213.59,56.28-384.32,122.37-384.32" transform="translate(-49.65 23.83)"/><path class="cls-7" d="M1249.52,1581.69l19.45,5.14c9.51,2.52,19.24-4.23,21.74-15.07l.94-4.08c2.51-10.84-3.17-21.66-12.68-24.17l-19.45-5.14Z" transform="translate(-49.65 23.83)"/><path class="cls-7" d="M1268.67,1588.14l-19.45-5.14a1.35,1.35,0,0,1-.92-1.63l10-43.33a1.4,1.4,0,0,1,.57-.83,1.23,1.23,0,0,1,1-.15l19.46,5.14a18.56,18.56,0,0,1,11.63,9.61,23.54,23.54,0,0,1,2,16.19l-1,4.09a22.07,22.07,0,0,1-8.78,13.34,18.06,18.06,0,0,1-7,3A16.82,16.82,0,0,1,1268.67,1588.14Zm-17.63-7.43,18.24,4.82a15,15,0,0,0,12.5-2.36,19.38,19.38,0,0,0,7.71-11.73l.94-4.08a20.65,20.65,0,0,0-1.71-14.23,16,16,0,0,0-10-8.31l-18.23-4.82Z" transform="translate(-49.65 23.83)"/><path class="cls-7" d="M1179.76,1748.83h0c9.18,2.42,18.78-4.91,21.43-16.4l25.91-112.26c2.65-11.48-2.65-22.75-11.83-25.18h0c-9.18-2.43-18.78,4.91-21.43,16.39l-25.91,112.26C1165.28,1735.12,1170.58,1746.4,1179.76,1748.83Z" transform="translate(-49.65 23.83)"/><path class="cls-7" d="M1179.46,1750.13h0c-9.84-2.6-15.56-14.63-12.75-26.81l25.91-112.26c2.82-12.18,13.11-20,23-17.38,4.81,1.27,8.77,4.79,11.18,9.9a26.09,26.09,0,0,1,1.57,16.92l-25.91,112.26a24.8,24.8,0,0,1-8.75,14.18,17.86,17.86,0,0,1-7.48,3.44A15.27,15.27,0,0,1,1179.46,1750.13Zm15.6-138.42L1169.15,1724c-2.48,10.74,2.42,21.3,10.91,23.55a13.87,13.87,0,0,0,12.13-2.77,22,22,0,0,0,7.77-12.64l25.92-112.26a23.27,23.27,0,0,0-1.38-15.06c-2.07-4.4-5.45-7.42-9.53-8.49a12.76,12.76,0,0,0-5.66-.2C1202.82,1597.32,1197,1603.36,1195.06,1611.71Zm-15.32,137.12h0Z" transform="translate(-49.65 23.83)"/><path class="cls-15" d="M1191.14,1607.72l35.58,9.4c7.45,2,15-2.9,16.82-10.87l2-8.49c1.84-8-2.7-16-10.16-18l-35.58-9.41c-7.45-2-15,2.9-16.82,10.87l-2,8.49C1179.14,1597.68,1183.68,1605.75,1191.14,1607.72Z" transform="translate(-49.65 23.83)"/><path class="cls-7" d="M1226.42,1618.43l-35.59-9.41a15.2,15.2,0,0,1-9.34-7.36,17,17,0,0,1-1.73-12.27l2-8.49c2-8.68,10.24-14,18.35-11.86l35.59,9.41c8.11,2.14,13.08,11,11.07,19.63l-2,8.49a16.08,16.08,0,0,1-6.87,10,14.67,14.67,0,0,1-5.22,2.1A14.22,14.22,0,0,1,1226.42,1618.43Zm-42.26-36.89-2,8.49c-1.67,7.24,2.47,14.59,9.24,16.38h0l35.58,9.4a11.81,11.81,0,0,0,9.56-1.55,13.43,13.43,0,0,0,5.74-8.33l2-8.49c1.67-7.24-2.47-14.59-9.24-16.38l-35.58-9.4a11.77,11.77,0,0,0-5.2-.2A13,13,0,0,0,1184.16,1581.54Z" transform="translate(-49.65 23.83)"/><path class="cls-16" d="M1192.81,1589.4l40.89,10.81c20,5.29,40.43-8.9,45.69-31.67l2-8.59c5.26-22.77-6.68-45.52-26.65-50.8l-40.89-10.81Z" transform="translate(-49.65 23.83)"/><path class="cls-4" d="M1233.39,1601.52l-40.88-10.81a1.35,1.35,0,0,1-.92-1.63l21-91.06a1.34,1.34,0,0,1,.57-.83,1.21,1.21,0,0,1,1-.16l40.89,10.81c10,2.65,18.38,9.57,23.58,19.49a47.78,47.78,0,0,1,4,32.94l-2,8.59c-4.09,17.7-17.14,30.38-32.16,33.21A34,34,0,0,1,1233.39,1601.52Zm-39.06-13.1,39.67,10.49c19.28,5.09,39.08-8.68,44.17-30.69l2-8.59a45,45,0,0,0-3.74-31c-4.86-9.27-12.67-15.73-22-18.19L1214.74,1500Z" transform="translate(-49.65 23.83)"/><path class="cls-17" d="M1213.83,1498.34h0l-21,91.06h0c-30.8-8.14-63.49-4.65-93.65,10l-47.85,22.28,52.14-225.19,31.84,46.38C1155.61,1470.83,1183,1490.2,1213.83,1498.34Z" transform="translate(-49.65 23.83)"/><path class="cls-7" d="M1050.5,1622.69a1.43,1.43,0,0,1-.41-1.35l52.13-225.2a1.3,1.3,0,0,1,1-1,1.27,1.27,0,0,1,1.26.52l31.83,46.35c20.25,27.88,47.16,46.91,77.84,55a1.37,1.37,0,0,1,.92,1.63l-21,91.07a1.4,1.4,0,0,1-.57.83,1.19,1.19,0,0,1-1,.15c-30.69-8.11-62.78-4.69-92.85,9.9l-47.84,22.28a1.11,1.11,0,0,1-.29.1A1.2,1.2,0,0,1,1050.5,1622.69Zm141.39-34.91,20.41-88.46c-30.72-8.43-57.67-27.65-78-55.67L1104,1399.58l-50.87,219.76,45.49-21.19A144.39,144.39,0,0,1,1135,1586,131.21,131.21,0,0,1,1191.89,1587.78Z" transform="translate(-49.65 23.83)"/><path class="cls-1" d="M1213.83,1498.34h0l-21,91.06h0c-30.8-8.14-63.49-4.65-93.65,10l-47.85,22.28,52.14-225.19,31.84,46.38C1155.61,1470.83,1183,1490.2,1213.83,1498.34Z" transform="translate(-49.65 23.83)"/><path class="cls-4" d="M1050.5,1622.69a1.43,1.43,0,0,1-.41-1.35l52.13-225.2a1.3,1.3,0,0,1,1-1,1.27,1.27,0,0,1,1.26.52l31.83,46.35c20.25,27.88,47.16,46.91,77.84,55a1.37,1.37,0,0,1,.92,1.63l-21,91.07a1.4,1.4,0,0,1-.57.83,1.19,1.19,0,0,1-1,.15c-30.69-8.11-62.78-4.69-92.85,9.9l-47.84,22.28a1.11,1.11,0,0,1-.29.1A1.2,1.2,0,0,1,1050.5,1622.69Zm141.39-34.91,20.41-88.46c-30.72-8.43-57.67-27.65-78-55.67L1104,1399.58l-50.87,219.76,45.49-21.19A144.39,144.39,0,0,1,1135,1586,131.21,131.21,0,0,1,1191.89,1587.78Z" transform="translate(-49.65 23.83)"/><ellipse class="cls-18" cx="1068.56" cy="1506.85" rx="118.93" ry="39.36" transform="translate(-691.98 2227.31) rotate(-76.81)"/><path class="cls-7" d="M1040.81,1623.88c-4.67-1.22-8.66-4.73-11.87-10.43-11.53-20.52-11.41-67.49.3-116.87,15.56-65.61,45-112.51,67.06-106.76,4.68,1.22,8.67,4.73,11.88,10.43,11.53,20.52,11.41,67.49-.3,116.87-14,59.09-39.31,103-60.3,107A15.43,15.43,0,0,1,1040.81,1623.88Zm-9.13-126.64h0c-11.56,48.74-11.79,94.88-.58,114.82,2.84,5.06,6.31,8.16,10.31,9.2a13.24,13.24,0,0,0,5.85.16c19.69-3.71,44.6-47.72,58.18-105,11.56-48.73,11.79-94.87.58-114.82-2.85-5.06-6.32-8.16-10.31-9.2a13.39,13.39,0,0,0-5.85-.16C1070.16,1396,1045.26,1440,1031.68,1497.24Z" transform="translate(-49.65 23.83)"/><path class="cls-7" d="M1070.24,1506.92c-11.49,48.91-9.27,91.58,5,95.3s35.07-32.9,46.56-81.81,9.28-91.58-5-95.31S1081.73,1458,1070.24,1506.92Z" transform="translate(-49.65 23.83)"/><path class="cls-8" d="M1120.79,1496.53l-27.66-7.14c-11.3-2.92-23.25,6.61-26.68,21.28h0c-3.44,14.67,2.93,28.92,14.22,31.84l27.66,7.14Z" transform="translate(-49.65 23.83)"/><path class="cls-4" d="M1108,1551l-27.66-7.14a20.23,20.23,0,0,1-12.35-10c-3.73-6.6-4.76-15.16-2.81-23.48,3.61-15.36,16.26-25.35,28.2-22.26l27.66,7.14a1.22,1.22,0,0,1,.78.61,1.42,1.42,0,0,1,.15,1L1109.55,1550a1.3,1.3,0,0,1-1,1A1.1,1.1,0,0,1,1108,1551Zm-15.21-60.26c-10.62-2.75-21.9,6.36-25.16,20.3-1.79,7.62-.88,15.44,2.51,21.43a17.69,17.69,0,0,0,10.79,8.77l26.44,6.83,11.85-50.51Z" transform="translate(-49.65 23.83)"/><path class="cls-18" d="M1073.11,1515.77h0c1.06-5.63-.11-11.16-2.69-14.39a21.67,21.67,0,0,0-4.86,10.55h0a24.92,24.92,0,0,0,1.36,14.36C1069.8,1524.53,1072.19,1520.7,1073.11,1515.77Z" transform="translate(-49.65 23.83)"/><path class="cls-4" d="M1066.55,1527.57a1.28,1.28,0,0,1-.76-.7,26.34,26.34,0,0,1-1.46-15.2,23.16,23.16,0,0,1,5.19-11.23,1.24,1.24,0,0,1,1-.41,1.22,1.22,0,0,1,.91.48c2.93,3.68,4.07,9.63,3,15.53h0c-1,5.13-3.51,9.4-6.8,11.42a1.27,1.27,0,0,1-.41.15A1.08,1.08,0,0,1,1066.55,1527.57Zm5.33-12.06c.81-4.37.21-8.88-1.55-12a21.65,21.65,0,0,0-3.54,8.65,24.32,24.32,0,0,0,.69,12,15.57,15.57,0,0,0,4.4-8.72Z" transform="translate(-49.65 23.83)"/><path class="cls-7" d="M1043.82,1498.79c-11.8,50.23-9.52,94.06,5.09,97.89s36-33.8,47.83-84,9.52-94.06-5.09-97.89S1055.62,1448.55,1043.82,1498.79Z" transform="translate(-49.65 23.83)"/><polygon class="cls-15" points="1155.18 1519.51 1134.56 1611.23 1143.11 1612.94 1164.17 1522.17 1155.18 1519.51"/><path class="cls-7" d="M1192.53,1590.43l-8.55-1.71a1.23,1.23,0,0,1-.82-.59,1.43,1.43,0,0,1-.17-1.05l20.63-91.72a1.36,1.36,0,0,1,.58-.85,1.21,1.21,0,0,1,1-.13l9,2.66a1.37,1.37,0,0,1,.89,1.63L1194,1589.43a1.28,1.28,0,0,1-1,1A1.14,1.14,0,0,1,1192.53,1590.43Zm13.23-93.09-20,89,6.08,1.22,20.48-88.26Z" transform="translate(-49.65 23.83)"/><polygon class="cls-19" points="929.88 1417.18 945.47 1460.58 951.35 1449.67 970.93 1478.03 953.31 1429.63 946.96 1439.33 929.88 1417.18"/><path class="cls-4" d="M1019.57,1455l-18.44-26.7-4.92,9.13a1.23,1.23,0,0,1-1.19.67,1.25,1.25,0,0,1-1.07-.86l-15.59-43.4a1.39,1.39,0,0,1,.54-1.64,1.2,1.2,0,0,1,1.61.3l16,20.79,5.41-8.26a1.23,1.23,0,0,1,1.18-.56,1.28,1.28,0,0,1,1,.85l17.62,48.39a1.38,1.38,0,0,1-.57,1.67,1.09,1.09,0,0,1-.39.15A1.22,1.22,0,0,1,1019.57,1455Zm-21.92-38.72a1.28,1.28,0,0,1-1,.58,1.25,1.25,0,0,1-1-.49l-12.17-15.78,11.87,33.05,4.56-8.46a1.23,1.23,0,0,1,1-.67,1.2,1.2,0,0,1,1.08.54l14,20.23-13.34-36.64Z" transform="translate(-49.65 23.83)"/><polygon class="cls-19" points="889 1591.62 929.78 1588.03 922.12 1579.46 951.25 1568.02 905.71 1572.25 912.23 1580.96 889 1591.62"/><path class="cls-4" d="M979.53,1565.54l-40.77,3.59a1.27,1.27,0,0,1-1.33-1,1.37,1.37,0,0,1,.73-1.56l21.71-10-5.49-7.33a1.43,1.43,0,0,1-.17-1.37,1.25,1.25,0,0,1,1-.81l45.54-4.24a1.28,1.28,0,0,1,1.33,1.05,1.36,1.36,0,0,1-.79,1.56L974,1556.18l6.33,7.09a1.44,1.44,0,0,1,.27,1.41,1.32,1.32,0,0,1-1,.85Zm-21.71-16,5,6.75a1.38,1.38,0,0,1,.24,1.17,1.33,1.33,0,0,1-.72.91l-16.14,7.4,30.46-2.68-5.84-6.53a1.42,1.42,0,0,1-.31-1.24,1.31,1.31,0,0,1,.79-1l20.27-8Z" transform="translate(-49.65 23.83)"/><polygon class="cls-19" points="840.74 1488.85 903.81 1522.14 899.61 1502.26 952 1512.97 881.38 1476.11 883.79 1495.11 840.74 1488.85"/><path class="cls-4" d="M952.91,1499.52l-63.07-33.3a1.37,1.37,0,0,1-.65-1.6,1.24,1.24,0,0,1,1.37-.94l41.41,6-2.18-17.25a1.38,1.38,0,0,1,.51-1.27,1.17,1.17,0,0,1,1.29-.12l70.62,36.85a1.4,1.4,0,0,1,.64,1.64,1.23,1.23,0,0,1-1.43.89l-50.5-10.31,3.77,17.87a1.4,1.4,0,0,1-.44,1.36,1.25,1.25,0,0,1-.57.27A1.23,1.23,0,0,1,952.91,1499.52Zm-3.4-22.42,43.11,8.81-60-31.32,2.09,16.51a1.4,1.4,0,0,1-.36,1.13,1.19,1.19,0,0,1-1.06.38l-35.4-5.15,53.79,28.39L948,1478.72a1.44,1.44,0,0,1,.32-1.23,1.24,1.24,0,0,1,.69-.39A1.19,1.19,0,0,1,949.51,1477.1Z" transform="translate(-49.65 23.83)"/><path class="cls-13" d="M1394.13,1748.19l-102.29-33.08-57.46,73.46s26.69,90.13,141.24,112.87,180.45-91,160.49-195.6-75.27-139.2-75.27-139.2l-62,122.08c-11.22,35.48-23.23,52.78-23.23,52.78" transform="translate(-49.65 23.83)"/><path class="cls-20" d="M1460.84,1566.64s55.3,34.57,75.27,139.2-45.95,218.35-160.49,195.6-141.24-112.87-141.24-112.87l57.46-73.46,102.29,33.08" transform="translate(-49.65 23.83)"/><path class="cls-20" d="M1375.61,1741.5s12-17.3,23.23-52.78" transform="translate(-49.65 23.83)"/><path class="cls-18" d="M1246.38,1770.35s-92.61-75.17-100.43-99.51c-6.55-20.41,33.59,21.84,33.59,21.84s-31.27-27.12-27.46-35.39,36,26.24,36,26.24-34.21-33.54-29.22-39.18,37.75,30.6,37.75,30.6-35.13-33.72-29.43-40.46,38.94,30.42,38.94,30.42-18.06-25.72-11.89-28.65,39.76,52.19,80.86,82.11C1298.59,1735.51,1246.38,1770.35,1246.38,1770.35Z" transform="translate(-49.65 23.83)"/><path class="cls-21" d="M1194.39,1672.29a163.06,163.06,0,0,1-21.28-23.44c-1.49-2.07-9.94-13.37-4-14.79,1.85-.44,3.91.61,5.49,1.47a47,47,0,0,1,7.2,5.08,166.89,166.89,0,0,1,14.84,14.17c2.85,3,5.66,6,8.35,9.19.27.32.83-.1.59-.45-2-2.93-4-5.94-5.81-9-1.53-2.49-3-5-4.33-7.6a27,27,0,0,1-2.68-6.55c-.22-1.05-.39-2.67.36-3.54.92-1.07,2.69,0,3.59.56,2.76,1.75,4.91,4.32,7.06,6.75q5.94,6.73,11.75,13.59c4.46,5.22,8.89,10.47,13.24,15.78,2.71,3.33,5.29,6.75,8.22,9.89,7.71,8.29,16,16,24.29,23.75,7,6.49,13.92,13,21.17,19.19.37.31.73.62,1.11.92s.91-.22.53-.53c-6.94-5.59-13.4-11.86-19.92-17.91-8.73-8.11-17.47-16.26-25.67-24.91-3-3.12-5.58-6.47-8.29-9.81-4.46-5.48-9-10.88-13.6-16.26q-6.06-7.12-12.23-14.16c-1.53-1.73-10-11.84-12.19-6.7-.84,2,0,4.36.71,6.23a61.42,61.42,0,0,0,3.67,7.35c2.43,4.3,5.09,8.49,7.87,12.58.16.25.33.49.5.74l.59-.46a193.11,193.11,0,0,0-23-23.2,48,48,0,0,0-7.55-5.36c-1.65-.91-3.69-1.9-5.64-1.62-6.34.89-.85,10,.8,12.54a107.42,107.42,0,0,0,10.3,13.26c4.24,4.8,8.74,9.39,13.43,13.76.35.33.89-.2.53-.53Z" transform="translate(-49.65 23.83)"/><path class="cls-21" d="M1186.52,1681.39c-5.92-5.67-11.69-11.52-17.22-17.57a92.3,92.3,0,0,1-9.85-12c-1.33-2.06-3.73-7-.22-8.37,2.22-.84,5,.55,6.81,1.65,4.09,2.42,7.5,6,10.58,9.52.31.37.84-.17.53-.53a48.29,48.29,0,0,0-9.75-9c-2-1.3-4.37-2.6-6.81-2.58-4,0-4.42,4.06-3.23,7a22.24,22.24,0,0,0,3,4.84c1.63,2.2,3.39,4.3,5.19,6.36,4.07,4.67,8.37,9.14,12.73,13.55,2.56,2.59,5.14,5.16,7.76,7.67.35.34.88-.19.53-.53Z" transform="translate(-49.65 23.83)"/><path class="cls-21" d="M1175.85,1688.86c-3-2.84-6-5.82-8.84-8.83-4.46-4.68-9-9.52-12.49-15-1.26-2-3.42-5.51-2.45-8,.83-2.19,3.93-1.07,5.43-.41,5.21,2.28,9.65,6.47,13.69,10.38.34.33.87-.2.53-.53-4-3.86-8.35-7.92-13.43-10.31-1.73-.82-4.67-2-6.32-.36s-.66,4.39,0,6.13a31,31,0,0,0,4.31,7c2.16,2.84,4.51,5.55,6.91,8.19,3.87,4.24,7.88,8.4,12.09,12.31.35.33.89-.2.53-.53Z" transform="translate(-49.65 23.83)"/><path class="cls-21" d="M1162.54,1675.19c-1.79-1.88-3.67-3.7-5.59-5.46-1.47-1.34-3-2.64-4.56-3.84a13.75,13.75,0,0,0-4-2.38,3.09,3.09,0,0,0-3.21,1c-1.67,1.8-1.22,4.65-.58,6.78,2,6.44,6.49,12.19,10.61,17.36s8.38,9.91,12.84,14.61c.54.57,1.14,1.08,1.72,1.61q4.95,4.5,9.93,9,17.52,15.77,35.27,31.3c5.75,5,11.52,10,17.39,14.87,3.94,3.28,7.9,6.62,12.12,9.55.57.4,1.15.79,1.75,1.14a.38.38,0,0,0,.38-.65,83.81,83.81,0,0,1-10.12-7.6c-5.44-4.43-10.77-9-16.07-13.57-11.9-10.27-23.64-20.71-35.34-31.21-6.81-6.11-13.88-12-20.07-18.77-6.43-7-13-14.44-17.57-22.9-1.42-2.68-3.49-6.62-2.41-9.77a3,3,0,0,1,2.17-2.08c1.72-.26,3.8,1.6,5,2.56a84.44,84.44,0,0,1,8.31,7.51c.5.5,1,1,1.49,1.52.34.35.87-.18.53-.53Z" transform="translate(-49.65 23.83)"/><path class="cls-22" d="M1237.72,1794.23a324.94,324.94,0,0,1-16.93-31.59l43.79-60.5,31.25,14.87Z" transform="translate(-49.65 23.83)"/><path class="cls-23" d="M1401.81,1447.5h19.88s25.15,12.73,24.81,29.39V1511a3.05,3.05,0,0,1,1,2.86,13.72,13.72,0,0,1,0,3.12v21.13l2,1.15.3,20.33c.11,7.54-5.66,13.8-12.81,13.91l-8.29.13c-7.15.12-13.09-6-13.2-13.49l-.26-17.64-12.07.19c-13.88.23-25.43-13.29-25.67-30l-.49-34.3C1376.77,1461.61,1387.93,1447.72,1401.81,1447.5Z" transform="translate(-49.65 23.83)"/><path d="M1418.58,1488.86a4.65,4.65,0,1,1-4.71-4.88A4.82,4.82,0,0,1,1418.58,1488.86Z" transform="translate(-49.65 23.83)"/><path d="M1388.21,1488.63a4,4,0,1,1-4-4.17A4.11,4.11,0,0,1,1388.21,1488.63Z" transform="translate(-49.65 23.83)"/><path class="cls-24" d="M1392.93,1508.86s2.43,7.22,7.36,7.64,8.71-5.48,8.91-10Z" transform="translate(-49.65 23.83)"/><polyline class="cls-25" points="1350.29 1523.71 1343.1 1520.16 1349.52 1508.07"/><path d="M1422.47,1479.31l-7.46-2.67-1.07-.38c-.76-.27-1.09.93-.34,1.2l7.47,2.68,1.07.38c.76.27,1.08-.94.33-1.21Z" transform="translate(-49.65 23.83)"/><path d="M1388,1477.38l-7,.1-1,0a.63.63,0,0,0,0,1.25l7-.11,1,0a.62.62,0,0,0,0-1.24Z" transform="translate(-49.65 23.83)"/><path d="M1447.82,1506.52a12.06,12.06,0,0,1,8.18,1,17.55,17.55,0,0,1,.8-11.12,15.16,15.16,0,0,1-20.13-1.66,17.4,17.4,0,0,1-4.61-9.09,15.57,15.57,0,0,1-5.82-3.76,17.59,17.59,0,0,1-4.82-13.48,15.63,15.63,0,0,1-3.06-2.39,17.25,17.25,0,0,1-2-2.57,15,15,0,0,1-20.47.17,16.63,16.63,0,0,1-1.24,1.69,15.21,15.21,0,0,1-22.54.54,17.33,17.33,0,0,1-4.66-9.57,15.65,15.65,0,0,1-5.56-3.68,17.91,17.91,0,0,1-.5-24.12,15.47,15.47,0,0,1,2.69-2.39,17.67,17.67,0,0,1,4.41-12.18,15.42,15.42,0,0,1,11-5.25,17,17,0,0,1,3.28-5.51,15.14,15.14,0,0,1,19.21-3.08,17.22,17.22,0,0,1,3.52-6.29,15.23,15.23,0,0,1,22.55-.54,17.26,17.26,0,0,1,3.35,5c.23-.3.41-.63.67-.92a13.69,13.69,0,0,1,20.28-.49,15.37,15.37,0,0,1,3.13,4.75,15.13,15.13,0,0,1,17.64,3.16,17.41,17.41,0,0,1,4.8,10.84,11.89,11.89,0,0,1,9.16,3.62,13.85,13.85,0,0,1,2.54,15.27,15.79,15.79,0,0,1,8.74,4.61,18.36,18.36,0,0,1,.52,24.73,16,16,0,0,1-7.35,4.66,15.41,15.41,0,0,1-.52,19.57,13.31,13.31,0,0,1-8.48,4.39,17.31,17.31,0,0,1-.52,22.09,14.67,14.67,0,0,1-18.9,2.82,14.23,14.23,0,0,1-3.29,11.79,12.17,12.17,0,0,1-11.4,4Z" transform="translate(-49.65 23.83)"/><path class="cls-18" d="M1473.79,1500.47c.14,9.6-7.08,17.5-16.13,17.64s-16.48-7.51-16.61-17.11,7.08-17.5,16.12-17.65S1473.66,1490.87,1473.79,1500.47Z" transform="translate(-49.65 23.83)"/><path d="M1449,1503.17c-.26-3.52,1-7.7,4.34-9.41a10.24,10.24,0,0,1,5.7-.84c.53,0,.53-.78,0-.83-3.31-.31-6.7.47-8.77,3.24a11.82,11.82,0,0,0-2.08,6.33,10.87,10.87,0,0,0,0,1.51c0,.53.87.53.83,0Z" transform="translate(-49.65 23.83)"/><path class="cls-26" d="M1441.05,1501a17.89,17.89,0,0,1,4.76-12.52" transform="translate(-49.65 23.83)"/><path class="cls-26" d="M1445.81,1488.48a15.87,15.87,0,0,1,11.36-5.13c9-.14,16.49,7.52,16.62,17.12s-7.08,17.5-16.13,17.64a15.44,15.44,0,0,1-7.74-1.92,24.83,24.83,0,0,1-3.76-2.7" transform="translate(-49.65 23.83)"/><path class="cls-11" d="M1403,1582l59-2.17a4.15,4.15,0,0,0,3.83-4.4L1465,1550a4.11,4.11,0,0,0-4.11-4.1l-58.95,2.17a4.14,4.14,0,0,0-3.83,4.39l.81,25.36A4.11,4.11,0,0,0,1403,1582Z" transform="translate(-49.65 23.83)"/><path class="cls-27" d="M1800.12,1794.5h-154.5c-11.11,0-20.12,9.64-20.12,21.53v74.86s8.56,21.41,19.61,19.61H1685l-2.19,29.14L1709,1911.5h89.08c10.92,0,19.84-9.29,20.11-21,.49-20.78,1.28-52.51,2-73.75C1820.63,1804.6,1811.51,1794.5,1800.12,1794.5Z" transform="translate(-49.65 23.83)"/><polygon class="cls-18" points="1747.46 1878.83 1723.15 1840.28 1697.53 1878.39 1697.1 1878.83 1716.35 1878.83 1716.35 1904.83 1727.35 1904.83 1727.35 1878.83 1747.46 1878.83"/><path class="cls-18" d="M1674.78,1840.22a14.46,14.46,0,0,0-8.55-13.39,2,2,0,0,0-.91-.17,3.68,3.68,0,0,0-.63.07c-1.45-1.32-3.21-1.38-4.81-1.38-8.12,0-13.62,8.34-13.62,16,0,9.12,8.11,14.57,15.16,14.57C1669.31,1855.9,1674.78,1848.2,1674.78,1840.22Zm-13.77,8.35c-3.81,0-7.51-2.63-7.51-6.87,0-5,2.86-9,7.07-9a2.72,2.72,0,0,1,.44,0,8.16,8.16,0,0,0,1.19.07,2.28,2.28,0,0,0,.48,0,8.07,8.07,0,0,1,4.9,7.3C1667.58,1843.86,1665.16,1848.57,1661,1848.57Z" transform="translate(-49.65 23.83)"/><path class="cls-18" d="M1703.74,1852.2a2.92,2.92,0,0,0-.91-.14,3.66,3.66,0,0,0-.6.07c-1.48-1.38-3.24-1.41-4.84-1.41-8.12,0-13.65,8.34-13.65,16,0,9.49,8.08,14.63,15.22,14.63,7.89,0,13.33-7.74,13.33-15.68A14.51,14.51,0,0,0,1703.74,1852.2Zm-5.22,21.73c-3.84,0-7.52-2.62-7.52-6.86,0-5,2.87-9,7-9a3.21,3.21,0,0,1,.5,0,7.34,7.34,0,0,0,1.16.11,1.36,1.36,0,0,0,.54-.07,8.1,8.1,0,0,1,4.87,7.33C1705.09,1869.23,1702.64,1873.93,1698.52,1873.93Z" transform="translate(-49.65 23.83)"/><path class="cls-18" d="M1690.84,1831.56a11,11,0,0,0,.86-3.71,3.47,3.47,0,0,0-3.46-3.64c-2.71,0-3.56,3-4.24,5.78v0c-15.8,44.16-16,44.59-16.29,45a4.24,4.24,0,0,0-.92,2.49,3.82,3.82,0,0,0,4,4c2.33,0,2.76-1.75,3.19-3.45v0Z" transform="translate(-49.65 23.83)"/><ellipse class="cls-2" cx="1679.35" cy="1394.33" rx="39.5" ry="42"/><path class="cls-28" d="M1145,1736.76V1893H953V1736.76c0-9.27,7-16.76,15.67-16.76h160.66C1138,1720,1145,1727.49,1145,1736.76Z" transform="translate(-49.65 23.83)"/><path class="cls-19" d="M1145,1736.88V1752H953v-15.12c0-9.33,7-16.88,15.67-16.88h160.66C1138,1720,1145,1727.55,1145,1736.88Z" transform="translate(-49.65 23.83)"/><path class="cls-6" d="M1099.76,1737.05a4.78,4.78,0,1,1-4.77-5.1A4.94,4.94,0,0,1,1099.76,1737.05Z" transform="translate(-49.65 23.83)"/><path class="cls-29" d="M1115,1737.05a4.78,4.78,0,1,1-4.76-5.1A4.94,4.94,0,0,1,1115,1737.05Z" transform="translate(-49.65 23.83)"/><path class="cls-30" d="M1130.81,1737.05a4.78,4.78,0,1,1-4.77-5.1A4.94,4.94,0,0,1,1130.81,1737.05Z" transform="translate(-49.65 23.83)"/><polyline class="cls-31" points="920.85 1804.33 920.85 1899.33 1084.85 1899.33"/><rect class="cls-19" x="949.35" y="1826.83" width="23" height="64"/><rect class="cls-16" x="995.35" y="1813.83" width="23" height="77"/><rect class="cls-8" x="1041.35" y="1802.83" width="23" height="89"/><line class="cls-31" x1="952.3" y1="1813.11" x2="1042.48" y2="1791.48"/><polyline class="cls-31" points="1026.93 1787.74 1046.37 1790.23 1031.98 1800.22"/><path class="cls-32" d="M1145.5,1737.26V1893.5h-192V1737.26c0-9.27,7-16.76,15.67-16.76h160.66C1138.49,1720.5,1145.5,1728,1145.5,1737.26Z" transform="translate(-49.65 23.83)"/><line class="cls-33" x1="1681.35" y1="2114.83" x2="1681.35" y2="2128.83"/><path class="cls-33" d="M1730.5,2106.93a1.56,1.56,0,0,1-1.5-1.61v-14.21a1.5,1.5,0,1,1,3,0v14.21A1.56,1.56,0,0,1,1730.5,2106.93Z" transform="translate(-49.65 23.83)"/><line class="cls-33" x1="1681.35" y1="2150.83" x2="1681.35" y2="2164.83"/><path class="cls-33" d="M1730.5,2143a1.56,1.56,0,0,1-1.5-1.61v-14.21a1.5,1.5,0,1,1,3,0v14.21A1.56,1.56,0,0,1,1730.5,2143Z" transform="translate(-49.65 23.83)"/><line class="cls-33" x1="1704.35" y1="2140.83" x2="1691.35" y2="2140.83"/><path class="cls-33" d="M1754.25,2118h-12.41a1.5,1.5,0,0,1,0-3h12.41a1.5,1.5,0,0,1,0,3Z" transform="translate(-49.65 23.83)"/><line class="cls-33" x1="1670.35" y1="2140.83" x2="1657.35" y2="2140.83"/><path class="cls-33" d="M1720.51,2118H1708.1a1.5,1.5,0,0,1,0-3h12.41a1.5,1.5,0,0,1,0,3Z" transform="translate(-49.65 23.83)"/><line class="cls-33" x1="1664.94" y1="2157.84" x2="1674.23" y2="2147.9"/><path class="cls-33" d="M1714.6,2135.6a1.44,1.44,0,0,1-1-.47,1.66,1.66,0,0,1,0-2.24l9.29-9.95a1.42,1.42,0,0,1,2.1,0,1.67,1.67,0,0,1,0,2.25l-9.29,9.94A1.44,1.44,0,0,1,1714.6,2135.6Z" transform="translate(-49.65 23.83)"/><line class="cls-33" x1="1688.8" y1="2132.31" x2="1698.09" y2="2122.37"/><path class="cls-33" d="M1738.46,2110.06a1.43,1.43,0,0,1-1-.46,1.67,1.67,0,0,1,0-2.25l9.29-9.94a1.42,1.42,0,0,1,2.1,0,1.67,1.67,0,0,1,0,2.25l-9.29,9.94A1.43,1.43,0,0,1,1738.46,2110.06Z" transform="translate(-49.65 23.83)"/><line class="cls-33" x1="1664.94" y1="2122.37" x2="1674.23" y2="2132.31"/><path class="cls-33" d="M1723.89,2110.06a1.43,1.43,0,0,1-1.05-.46l-9.29-9.94a1.67,1.67,0,0,1,0-2.25,1.42,1.42,0,0,1,2.1,0l9.29,9.94a1.67,1.67,0,0,1,0,2.25A1.43,1.43,0,0,1,1723.89,2110.06Z" transform="translate(-49.65 23.83)"/><line class="cls-33" x1="1688.8" y1="2147.9" x2="1698.09" y2="2157.84"/><path class="cls-33" d="M1747.75,2135.6a1.44,1.44,0,0,1-1-.47l-9.29-9.94a1.67,1.67,0,0,1,0-2.25,1.42,1.42,0,0,1,2.1,0l9.29,9.95a1.66,1.66,0,0,1,0,2.24A1.44,1.44,0,0,1,1747.75,2135.6Z" transform="translate(-49.65 23.83)"/><line class="cls-33" x1="1086.35" y1="1349.83" x2="1086.35" y2="1363.83"/><path class="cls-33" d="M1135.5,1341.54a1.56,1.56,0,0,1-1.5-1.61v-14.21a1.5,1.5,0,1,1,3,0v14.21A1.56,1.56,0,0,1,1135.5,1341.54Z" transform="translate(-49.65 23.83)"/><line class="cls-33" x1="1086.35" y1="1384.83" x2="1086.35" y2="1399.83"/><path class="cls-33" d="M1135.5,1377.65a1.56,1.56,0,0,1-1.5-1.61v-14.21a1.5,1.5,0,1,1,3,0V1376A1.56,1.56,0,0,1,1135.5,1377.65Z" transform="translate(-49.65 23.83)"/><line class="cls-33" x1="1109.35" y1="1374.83" x2="1096.35" y2="1374.83"/><path class="cls-33" d="M1158.51,1353H1146.1a1.5,1.5,0,0,1,0-3h12.41a1.5,1.5,0,0,1,0,3Z" transform="translate(-49.65 23.83)"/><line class="cls-33" x1="1075.35" y1="1374.83" x2="1062.35" y2="1374.83"/><path class="cls-33" d="M1124.76,1353h-12.41a1.5,1.5,0,0,1,0-3h12.41a1.5,1.5,0,0,1,0,3Z" transform="translate(-49.65 23.83)"/><line class="cls-33" x1="1069.2" y1="1392.46" x2="1078.49" y2="1382.51"/><path class="cls-33" d="M1118.86,1370.21a1.43,1.43,0,0,1-1-.46,1.67,1.67,0,0,1,0-2.25l9.29-9.94a1.42,1.42,0,0,1,2.1,0,1.66,1.66,0,0,1,0,2.24l-9.29,10A1.43,1.43,0,0,1,1118.86,1370.21Z" transform="translate(-49.65 23.83)"/><line class="cls-33" x1="1093.06" y1="1366.92" x2="1102.35" y2="1356.98"/><path class="cls-33" d="M1142.72,1344.67a1.43,1.43,0,0,1-1-.46,1.67,1.67,0,0,1,0-2.25L1151,1332a1.42,1.42,0,0,1,2.1,0,1.67,1.67,0,0,1,0,2.25l-9.3,9.94A1.39,1.39,0,0,1,1142.72,1344.67Z" transform="translate(-49.65 23.83)"/><line class="cls-33" x1="1069.2" y1="1356.98" x2="1078.49" y2="1366.92"/><path class="cls-33" d="M1128.15,1344.67a1.43,1.43,0,0,1-1.05-.46l-9.29-9.94a1.67,1.67,0,0,1,0-2.25,1.42,1.42,0,0,1,2.1,0l9.29,9.94a1.67,1.67,0,0,1,0,2.25A1.43,1.43,0,0,1,1128.15,1344.67Z" transform="translate(-49.65 23.83)"/><line class="cls-33" x1="1093.06" y1="1382.51" x2="1102.35" y2="1392.46"/><path class="cls-33" d="M1152,1370.21a1.43,1.43,0,0,1-1-.46l-9.29-10a1.66,1.66,0,0,1,0-2.24,1.41,1.41,0,0,1,2.09,0l9.3,9.94a1.67,1.67,0,0,1,0,2.25A1.43,1.43,0,0,1,1152,1370.21Z" transform="translate(-49.65 23.83)"/><line class="cls-33" x1="1728.35" y1="1605.83" x2="1728.35" y2="1619.83"/><path class="cls-33" d="M1778.5,1596.85a1.55,1.55,0,0,1-1.5-1.6V1581a1.5,1.5,0,1,1,3,0v14.21A1.55,1.55,0,0,1,1778.5,1596.85Z" transform="translate(-49.65 23.83)"/><line class="cls-33" x1="1728.35" y1="1640.83" x2="1728.35" y2="1654.83"/><path class="cls-33" d="M1778.5,1633a1.55,1.55,0,0,1-1.5-1.6v-14.21a1.5,1.5,0,1,1,3,0v14.21A1.55,1.55,0,0,1,1778.5,1633Z" transform="translate(-49.65 23.83)"/><line class="cls-33" x1="1752.35" y1="1629.83" x2="1738.35" y2="1629.83"/><path class="cls-33" d="M1801.31,1607H1788.9a1.5,1.5,0,0,1,0-3h12.41a1.5,1.5,0,0,1,0,3Z" transform="translate(-49.65 23.83)"/><line class="cls-33" x1="1718.35" y1="1629.83" x2="1704.35" y2="1629.83"/><path class="cls-33" d="M1767.57,1607h-12.41a1.5,1.5,0,0,1,0-3h12.41a1.5,1.5,0,0,1,0,3Z" transform="translate(-49.65 23.83)"/><line class="cls-33" x1="1712" y1="1647.77" x2="1721.3" y2="1637.83"/><path class="cls-33" d="M1761.66,1625.53a1.44,1.44,0,0,1-1.05-.47,1.67,1.67,0,0,1,0-2.25l9.29-9.94a1.42,1.42,0,0,1,2.1,0,1.67,1.67,0,0,1,0,2.25l-9.29,9.94A1.44,1.44,0,0,1,1761.66,1625.53Z" transform="translate(-49.65 23.83)"/><line class="cls-33" x1="1735.87" y1="1622.24" x2="1745.16" y2="1612.29"/><path class="cls-33" d="M1785.52,1600a1.4,1.4,0,0,1-1-.47,1.66,1.66,0,0,1,0-2.24l9.29-9.94a1.42,1.42,0,0,1,2.1,0,1.66,1.66,0,0,1,0,2.24l-9.29,9.94A1.4,1.4,0,0,1,1785.52,1600Z" transform="translate(-49.65 23.83)"/><line class="cls-33" x1="1712" y1="1612.29" x2="1721.3" y2="1622.24"/><path class="cls-33" d="M1771,1600a1.4,1.4,0,0,1-1-.47l-9.29-9.94a1.66,1.66,0,0,1,0-2.24,1.42,1.42,0,0,1,2.1,0l9.29,9.94a1.66,1.66,0,0,1,0,2.24A1.4,1.4,0,0,1,1771,1600Z" transform="translate(-49.65 23.83)"/><line class="cls-33" x1="1735.87" y1="1637.83" x2="1745.16" y2="1647.77"/><path class="cls-33" d="M1794.81,1625.53a1.44,1.44,0,0,1-1-.47l-9.29-9.94a1.67,1.67,0,0,1,0-2.25,1.42,1.42,0,0,1,2.1,0l9.29,9.94a1.67,1.67,0,0,1,0,2.25A1.44,1.44,0,0,1,1794.81,1625.53Z" transform="translate(-49.65 23.83)"/><line class="cls-33" x1="900.35" y1="2001.83" x2="900.35" y2="2015.83"/><path class="cls-33" d="M950.5,1993.61A1.56,1.56,0,0,1,949,1992v-14.21a1.5,1.5,0,1,1,3,0V1992A1.56,1.56,0,0,1,950.5,1993.61Z" transform="translate(-49.65 23.83)"/><line class="cls-33" x1="900.35" y1="2036.83" x2="900.35" y2="2052.83"/><path class="cls-33" d="M950.5,2029.72a1.55,1.55,0,0,1-1.5-1.6v-14.21a1.5,1.5,0,1,1,3,0v14.21A1.55,1.55,0,0,1,950.5,2029.72Z" transform="translate(-49.65 23.83)"/><line class="cls-33" x1="924.35" y1="2026.83" x2="911.35" y2="2026.83"/><path class="cls-33" d="M973.81,2005H961.4a1.5,1.5,0,0,1,0-3h12.41a1.5,1.5,0,0,1,0,3Z" transform="translate(-49.65 23.83)"/><line class="cls-33" x1="890.35" y1="2026.83" x2="877.35" y2="2026.83"/><path class="cls-33" d="M940.06,2005H927.65a1.5,1.5,0,0,1,0-3h12.41a1.5,1.5,0,0,1,0,3Z" transform="translate(-49.65 23.83)"/><line class="cls-33" x1="884.5" y1="2044.53" x2="893.79" y2="2034.59"/><path class="cls-33" d="M934.16,2022.28a1.43,1.43,0,0,1-1-.46,1.67,1.67,0,0,1,0-2.25l9.29-9.94a1.42,1.42,0,0,1,2.1,0,1.66,1.66,0,0,1,0,2.24l-9.29,10A1.43,1.43,0,0,1,934.16,2022.28Z" transform="translate(-49.65 23.83)"/><line class="cls-33" x1="908.36" y1="2018.99" x2="917.65" y2="2009.05"/><path class="cls-33" d="M958,1996.75a1.43,1.43,0,0,1-1-.47,1.66,1.66,0,0,1,0-2.24l9.29-10a1.42,1.42,0,0,1,2.1,0,1.67,1.67,0,0,1,0,2.25l-9.3,9.94A1.44,1.44,0,0,1,958,1996.75Z" transform="translate(-49.65 23.83)"/><line class="cls-33" x1="884.5" y1="2009.05" x2="893.79" y2="2018.99"/><path class="cls-33" d="M943.45,1996.75a1.44,1.44,0,0,1-1.05-.47l-9.29-9.94a1.67,1.67,0,0,1,0-2.25,1.42,1.42,0,0,1,2.1,0l9.29,10a1.66,1.66,0,0,1,0,2.24A1.44,1.44,0,0,1,943.45,1996.75Z" transform="translate(-49.65 23.83)"/><line class="cls-33" x1="908.36" y1="2034.59" x2="917.65" y2="2044.53"/><path class="cls-33" d="M967.31,2022.28a1.43,1.43,0,0,1-1-.46l-9.29-10a1.66,1.66,0,0,1,0-2.24,1.41,1.41,0,0,1,2.09,0l9.3,9.94a1.67,1.67,0,0,1,0,2.25A1.43,1.43,0,0,1,967.31,2022.28Z" transform="translate(-49.65 23.83)"/><ellipse cx="1070.85" cy="1954.83" rx="5.5" ry="6"/><path d="M1726,1758.83a5.1,5.1,0,1,1-5.09-5.45A5.28,5.28,0,0,1,1726,1758.83Z" transform="translate(-49.65 23.83)"/><path d="M1754.26,2044.45a5.1,5.1,0,1,1-5.09-5.44A5.27,5.27,0,0,1,1754.26,2044.45Z" transform="translate(-49.65 23.83)"/><circle cx="1720.85" cy="1714.33" r="2.5"/><circle cx="1650.85" cy="2029.33" r="2.5"/><circle cx="1520.85" cy="2157.33" r="2.5"/><circle cx="1698.85" cy="2010.33" r="2.5"/><circle cx="1644.85" cy="1715.33" r="2.5"/><path d="M1187.67,1381.83a2.34,2.34,0,0,1-3.39.64,2.73,2.73,0,0,1-.6-3.63,2.33,2.33,0,0,1,3.39-.64A2.73,2.73,0,0,1,1187.67,1381.83Z" transform="translate(-49.65 23.83)"/><path d="M1189,1453.45a4.41,4.41,0,0,1-6.41,1.21,5.15,5.15,0,0,1-1.13-6.86,4.41,4.41,0,0,1,6.41-1.21A5.16,5.16,0,0,1,1189,1453.45Z" transform="translate(-49.65 23.83)"/><path d="M1232,1387.64a4.41,4.41,0,0,1-6.41,1.21,5.13,5.13,0,0,1-1.13-6.85,4.4,4.4,0,0,1,6.4-1.21A5.14,5.14,0,0,1,1232,1387.64Z" transform="translate(-49.65 23.83)"/><path d="M1169.42,1935.49a2.13,2.13,0,1,1-2.13-2.27A2.21,2.21,0,0,1,1169.42,1935.49Z" transform="translate(-49.65 23.83)"/><path d="M1110,1970.71a4.53,4.53,0,1,1-4.52-4.84A4.69,4.69,0,0,1,1110,1970.71Z" transform="translate(-49.65 23.83)"/><path d="M1710,1639.21A3.94,3.94,0,1,1,1706,1635,4.08,4.08,0,0,1,1710,1639.21Z" transform="translate(-49.65 23.83)"/><rect class="cls-34" x="208.35" y="1392.83" width="1996" height="1202"/></g><g id="TEXTS"><text class="cls-35" transform="translate(197.79 488.25)"><tspan class="cls-36">A</tspan><tspan class="cls-37" x="79.92" y="0">d</tspan><tspan class="cls-38" x="155.05" y="0">v</tspan><tspan x="217.79" y="0">e</tspan><tspan class="cls-39" x="284.52" y="0">r</tspan><tspan class="cls-37" x="331.27" y="0">tising</tspan></text><text class="cls-40" transform="translate(228.5 659.84)"><tspan class="cls-41">A</tspan><tspan x="113.37" y="0">gen</tspan><tspan class="cls-42" x="418.5" y="0">c</tspan><tspan x="506.54" y="0">y</tspan></text><text class="cls-43" transform="translate(58.46 755.52)">L<tspan class="cls-44" x="9.9" y="0">o</tspan><tspan class="cls-45" x="21.77" y="0">r</tspan><tspan class="cls-44" x="28.64" y="0">em ipsum dolor sit ame</tspan><tspan class="cls-46" x="239.93" y="0">t</tspan><tspan class="cls-47" x="247.03" y="0">, </tspan><tspan class="cls-48" x="256.11" y="0">c</tspan><tspan class="cls-44" x="265.67" y="0">onse</tspan><tspan class="cls-49" x="308.94" y="0">c</tspan><tspan class="cls-50" x="318.91" y="0">t</tspan><tspan class="cls-44" x="325.94" y="0">etuer adipiscing eli</tspan><tspan class="cls-51" x="496.43" y="0">t</tspan><tspan class="cls-44" x="503.53" y="0">, </tspan><tspan class="cls-52"><tspan x="0" y="45.66">sed diam nonum</tspan><tspan class="cls-53" x="152.28" y="45.66">m</tspan><tspan x="170.02" y="45.66">y nibh euismod tincidu</tspan><tspan class="cls-54" x="376.91" y="45.66">n</tspan><tspan x="388.82" y="45.66">t </tspan></tspan><tspan class="cls-44"><tspan x="0" y="91.31">ut lao</tspan><tspan class="cls-55" x="51.08" y="91.31">r</tspan><tspan class="cls-47" x="57.94" y="91.31">eet dolo</tspan><tspan class="cls-55" x="132.41" y="91.31">r</tspan><tspan class="cls-47" x="139.27" y="91.31">e ma</tspan><tspan class="cls-48" x="183.14" y="91.31">g</tspan><tspan x="195.09" y="91.31" xml:space="preserve">na aliquam  e</tspan><tspan class="cls-56" x="315.26" y="91.31">r</tspan><tspan class="cls-54" x="322.23" y="91.31">a</tspan><tspan x="332.57" y="91.31">t </tspan><tspan class="cls-45" x="344.33" y="91.31">v</tspan><tspan x="354.51" y="91.31">olutp</tspan><tspan class="cls-54" x="402.87" y="91.31">a</tspan><tspan class="cls-51" x="413.21" y="91.31">t</tspan><tspan x="420.31" y="91.31">.</tspan></tspan></text><text class="cls-57" transform="translate(80.47 133.82)"><tspan class="cls-58">L</tspan><tspan x="23.47" y="0">OGO</tspan></text><text class="cls-59" transform="translate(1087.52 130.76)"><tspan class="cls-60">A</tspan><tspan x="16.08" y="0">bout us</tspan></text><text class="cls-59" transform="translate(880.84 130.76)">Home</text><text class="cls-59" transform="translate(1369.05 130.76)"><tspan class="cls-61">G</tspan><tspan class="cls-62" x="17.27" y="0">alle</tspan><tspan class="cls-63" x="55.69" y="0">r</tspan><tspan x="64.99" y="0">y</tspan></text><text class="cls-59" transform="translate(1614.36 130.76)"><tspan class="cls-64">C</tspan><tspan x="15.03" y="0">o</tspan><tspan class="cls-65" x="29.52" y="0">n</tspan><tspan x="44.07" y="0">ta</tspan><tspan class="cls-66" x="65.54" y="0">c</tspan><tspan class="cls-62" x="77.71" y="0">t us</tspan></text><text class="cls-67" transform="translate(111.98 961.57)"><tspan class="cls-68">W</tspan><tspan class="cls-69" x="20.12" y="0">o</tspan><tspan class="cls-70" x="33.7" y="0">r</tspan><tspan x="41.89" y="0">k with us</tspan></text></g></svg>